<svg class="w-full h-full" viewBox="0 0 1600 900" xmlns="http://www.w3.org/2000/svg" id="world-svg-map">
  <style>
    .graticule { stroke: #334155; stroke-width: 1; fill: none; opacity: 0.15; }
    .land { fill: #f4dfb4; stroke: #8a6f3e; stroke-width: 1.2; transition: fill 0.3s; }
    .land:hover { fill: #ebd09e; }
    .island-dot { fill: #f4dfb4; stroke: #8a6f3e; stroke-width: 1.1; }
    .pin { cursor: pointer; }
    .pin-shape { fill: #7b4fd6; stroke: #ffffff; stroke-width: 3; filter: url(#pinShadow); transition: fill 0.3s, transform 0.3s; transform-origin: center; }
    .pin-core { fill: #ffffff; }
    .pin-label { font-family: 'Pretendard', 'Noto Sans KR', Arial, sans-serif; font-size: 15px; font-weight: 700; text-anchor: middle; fill: #39245f; paint-order: stroke; stroke: #fff; stroke-width: 4; stroke-linejoin: round; pointer-events: none; }
    .pin:hover .pin-shape, .pin:focus .pin-shape { fill: #ffb703; transform: scale(1.1); }
    .title { font-family: 'Pretendard', 'Noto Sans KR', Arial, sans-serif; font-size: 46px; font-weight: 900; text-anchor: middle; fill: #493078; display: none; }
    .subtitle { font-family: 'Pretendard', 'Noto Sans KR', Arial, sans-serif; font-size: 19px; font-weight: 700; text-anchor: middle; fill: #6a4b96; display: none; }
    .badge { fill: #fff8e8; stroke: #7b4fd6; stroke-width: 3; display: none; }
    .badgeText { font-family: 'Pretendard', 'Noto Sans KR', Arial, sans-serif; font-size: 18px; font-weight: 800; fill: #493078; display: none; }
    
    /* Finished indicator custom colors inside SVG */
    .pin.completed .pin-shape { fill: #10b981 !important; }
    .pin.completed:hover .pin-shape { fill: #34d399 !important; }
  </style>
  <defs>
    <filter id="pinShadow" x="-50%" y="-50%" width="200%" height="200%">
      <feDropShadow dx="0" dy="3" stdDeviation="3" flood-color="#000000" flood-opacity="0.22"/>
    </filter>
  </defs>

  <!-- Interactive Map Land Grid -->
  <rect class="ocean" x="0" y="0" width="1600" height="900" rx="28" fill="#dff4ff"/>
  
  <g id="graticules">
    <path class="graticule" d="M 210.23 778.14 L 183.35 756.53 L 159.06 734.32 L 138.16 711.66 L 119.4 688.7 L 103.82 665.55 L 91.04 642.33 L 81.44 619.1 L 74.65 595.88 L 68.89 572.66 L 64.9 549.43 L 62.54 526.21 L 61.5 502.99 L 62.54 479.77 L 64.9 456.54 L 68.89 433.32 L 74.65 410.1 L 81.44 386.88 L 91.04 363.65 L 103.82 340.43 L 119.4 317.28 L 138.16 294.32 L 159.06 271.66 L 183.35 249.45 L 210.23 227.84 L 238.96 206.98 L 269.31 187.05 L 302.84 168.29 L 341.17 151.13" />
    <path class="graticule" d="M 308.53 778.14 L 286.13 756.53 L 265.88 734.32 L 248.46 711.66 L 232.83 688.7 L 219.85 665.55 L 209.2 642.33 L 201.2 619.1 L 195.54 595.88 L 190.74 572.66 L 187.42 549.43 L 185.45 526.21 L 184.58 502.99 L 185.45 479.77 L 187.42 456.54 L 190.74 433.32 L 195.54 410.1 L 201.2 386.88 L 209.2 363.65 L 219.85 340.43 L 232.83 317.28 L 248.46 294.32 L 265.88 271.66 L 286.13 249.45 L 308.53 227.84 L 332.47 206.98 L 357.76 187.05 L 385.7 168.29 L 417.64 151.13" />
    <path class="graticule" d="M 406.82 778.14 L 388.9 756.53 L 372.7 734.32 L 358.77 711.66 L 346.27 688.7 L 335.88 665.55 L 327.36 642.33 L 320.96 619.1 L 316.43 595.88 L 312.59 572.66 L 309.93 549.43 L 308.36 526.21 L 307.67 502.99 L 308.36 479.77 L 309.93 456.54 L 312.59 433.32 L 316.43 410.1 L 320.96 386.88 L 327.36 363.65 L 335.88 340.43 L 346.27 317.28 L 358.77 294.32 L 372.7 271.66 L 388.9 249.45 L 406.82 227.84 L 425.98 206.98 L 446.21 187.05 L 468.56 168.29 L 494.11 151.13" />
    <path class="graticule" d="M 505.12 778.14 L 491.68 756.53 L 479.53 734.32 L 469.08 711.66 L 459.7 688.7 L 451.91 665.55 L 445.52 642.33 L 440.72 619.1 L 437.32 595.88 L 434.44 572.66 L 432.45 549.43 L 431.27 526.21 L 430.75 502.99 L 431.27 479.77 L 432.45 456.54 L 434.44 433.32 L 437.32 410.1 L 440.72 386.88 L 445.52 363.65 L 451.91 340.43 L 459.7 317.28 L 469.08 294.32 L 479.53 271.66 L 491.68 249.45 L 505.12 227.84 L 519.48 206.98 L 534.66 187.05 L 551.42 168.29 L 570.59 151.13" />
    <path class="graticule" d="M 603.41 778.14 L 594.45 756.53 L 586.35 734.32 L 579.39 711.66 L 573.13 688.7 L 567.94 665.55 L 563.68 642.33 L 560.48 619.1 L 558.22 595.88 L 556.3 572.66 L 554.97 549.43 L 554.18 526.21 L 553.83 502.99 L 554.18 479.77 L 554.97 456.54 L 556.3 433.32 L 558.22 410.1 L 560.48 386.88 L 563.68 363.65 L 567.94 340.43 L 573.13 317.28 L 579.39 294.32 L 586.35 271.66 L 594.45 249.45 L 603.41 227.84 L 612.99 206.98 L 623.1 187.05 L 634.28 168.29 L 647.06 151.13" />
    <path class="graticule" d="M 701.71 778.14 L 697.23 756.53 L 693.18 734.32 L 689.69 711.66 L 686.57 688.7 L 683.97 665.55 L 681.84 642.33 L 680.24 619.1 L 679.11 595.88 L 678.15 572.66 L 677.48 549.43 L 677.09 526.21 L 676.92 502.99 L 677.09 479.77 L 677.48 456.54 L 678.15 433.32 L 679.11 410.1 L 680.24 386.88 L 681.84 363.65 L 683.97 340.43 L 686.57 317.28 L 689.69 294.32 L 693.18 271.66 L 697.23 249.45 L 701.71 227.84 L 706.49 206.98 L 711.55 187.05 L 717.14 168.29 L 723.53 151.13" />
    <path class="graticule" d="M 800 778.14 L 800 756.53 L 800 734.32 L 800 711.66 L 800 688.7 L 800 665.55 L 800 642.33 L 800 619.1 L 800 595.88 L 800 572.66 L 800 549.43 L 800 526.21 L 800 502.99 L 800 479.77 L 800 456.54 L 800 433.32 L 800 410.1 L 800 386.88 L 800 363.65 L 800 340.43 L 800 317.28 L 800 294.32 L 800 271.66 L 800 249.45 L 800 227.84 L 800 206.98 L 800 187.05 L 800 168.29 L 800 151.13" />
    <path class="graticule" d="M 898.29 778.14 L 902.77 756.53 L 906.82 734.32 L 910.31 711.66 L 913.43 688.7 L 916.03 665.55 L 918.16 642.33 L 919.76 619.1 L 920.89 595.88 L 921.85 572.66 L 922.52 549.43 L 922.91 526.21 L 923.08 502.99 L 922.91 479.77 L 922.52 456.54 L 921.85 433.32 L 920.89 410.1 L 919.76 386.88 L 918.16 363.65 L 916.03 340.43 L 913.43 317.28 L 910.31 294.32 L 906.82 271.66 L 902.77 249.45 L 898.29 227.84 L 893.51 206.98 L 888.45 187.05 L 882.86 168.29 L 876.47 151.13" />
    <path class="graticule" d="M 996.59 778.14 L 1005.55 756.53 L 1013.65 734.32 L 1020.61 711.66 L 1026.87 688.7 L 1032.06 665.55 L 1036.32 642.33 L 1039.52 619.1 L 1041.78 595.88 L 1043.7 572.66 L 1045.03 549.43 L 1045.82 526.21 L 1046.17 502.99 L 1045.82 479.77 L 1045.03 456.54 L 1043.7 433.32 L 1041.78 410.1 L 1039.52 386.88 L 1036.32 363.65 L 1032.06 340.43 L 1026.87 317.28 L 1020.61 294.32 L 1013.65 271.66 L 1005.55 249.45 L 996.59 227.84 L 987.01 206.98 L 976.9 187.05 L 965.72 168.29 L 952.94 151.13" />
    <path class="graticule" d="M 1094.88 778.14 L 1108.32 756.53 L 1120.47 734.32 L 1130.92 711.66 L 1140.3 688.7 L 1148.09 665.55 L 1154.48 642.33 L 1159.28 619.1 L 1162.68 595.88 L 1165.56 572.66 L 1167.55 549.43 L 1168.73 526.21 L 1169.25 502.99 L 1168.73 479.77 L 1167.55 456.54 L 1165.56 433.32 L 1162.68 410.1 L 1159.28 386.88 L 1154.48 363.65 L 1148.09 340.43 L 1140.3 317.28 L 1130.92 294.32 L 1120.47 271.66 L 1108.32 249.45 L 1094.88 227.84 L 1080.52 206.98 L 1065.34 187.05 L 1048.58 168.29 L 1029.41 151.13" />
    <path class="graticule" d="M 1193.18 778.14 L 1211.1 756.53 L 1227.3 734.32 L 1241.23 711.66 L 1253.73 688.7 L 1264.12 665.55 L 1272.64 642.33 L 1279.04 619.1 L 1283.57 595.88 L 1287.41 572.66 L 1290.07 549.43 L 1291.64 526.21 L 1292.33 502.99 L 1291.64 479.77 L 1290.07 456.54 L 1287.41 433.32 L 1283.57 410.1 L 1279.04 386.88 L 1272.64 363.65 L 1264.12 340.43 L 1253.73 317.28 L 1241.23 294.32 L 1227.3 271.66 L 1211.1 249.45 L 1193.18 227.84 L 1174.02 206.98 L 1153.79 187.05 L 1131.44 168.29 L 1105.89 151.13" />
    <path class="graticule" d="M 1291.47 778.14 L 1313.87 756.53 L 1334.12 734.32 L 1351.54 711.66 L 1367.17 688.7 L 1380.15 665.55 L 1390.8 642.33 L 1398.8 619.1 L 1404.46 595.88 L 1409.26 572.66 L 1412.58 549.43 L 1414.55 526.21 L 1415.42 502.99 L 1414.55 479.77 L 1412.58 456.54 L 1409.26 433.32 L 1404.46 410.1 L 1398.8 386.88 L 1390.8 363.65 L 1380.15 340.43 L 1367.17 317.28 L 1351.54 294.32 L 1334.12 271.66 L 1313.87 249.45 L 1291.47 227.84 L 1267.53 206.98 L 1242.24 187.05 L 1214.3 168.29 L 1182.36 151.13" />
    <path class="graticule" d="M 1389.77 778.14 L 1416.65 756.53 L 1440.94 734.32 L 1461.84 711.66 L 1480.6 688.7 L 1496.18 665.55 L 1508.96 642.33 L 1518.56 619.1 L 1525.35 595.88 L 1531.11 572.66 L 1535.1 549.43 L 1537.46 526.21 L 1538.5 502.99 L 1537.46 479.77 L 1535.1 456.54 L 1531.11 433.32 L 1525.35 410.1 L 1518.56 386.88 L 1508.96 363.65 L 1496.18 340.43 L 1480.6 317.28 L 1461.84 294.32 L 1440.94 271.66 L 1416.65 249.45 L 1389.77 227.84 L 1361.04 206.98 L 1330.69 187.05 L 1297.16 168.29 L 1258.83 151.13" />
  </g>

  <!-- World Landmasses -->
  <g id="landmasses">
    <path class="land" d="M1530 577.61 L1529.46 579.88 L1523.78 582 L1523.68 580.27 L1530 577.61 Z M1519.09 583.72 L1523.04 584.87 L1521.76 587.29 L1517.01 587.35 L1519.09 583.72 Z M70 577.61 L70.81 579.63 L70.54 579.88 L70 577.61 Z" />
    <path class="land" d="M939.09 507.4 L954.58 517.37 L954.82 520.07 L960.64 524.71 L958.65 530.43 L958.84 533.07 L961.43 534.76 L960.22 542.4 L964.6 550.91 L961.27 553.6 L948.88 557.43 L940.95 556.49 L937.85 546.73 L925.7 541.72 L921.26 533.27 L920.23 523.89 L926.08 518.59 L924.96 514.2 L926.41 510.88 L924.79 508.26 L939.09 507.4 Z" />
    <path class="land" d="M765.63 374.54 L765.39 382.79 L752.32 382.54 L752.19 394.43 L748.42 394.84 L748.02 403.94 L732.27 403.91 L731.36 405.46 L731.58 403.49 L740.71 403.13 L744.39 392.96 L750.07 387.94 L752.09 382.09 L754.73 378.13 L765.07 377.03 L765.63 374.54 Z" />
    <path class="land" d="M573.08 146.42 L608.11 142.03 L649.11 143.38 L631.82 146.57 L637.24 146.55 L617.95 151.76 L601.72 153.29 L604.87 153.7 L602.49 154.29 L603.03 155.92 L586.69 161.2 L591.4 161.07 L590.64 161.92 L581.41 164.04 L558.3 163 L559.79 161.31 L565.59 160.52 L567.02 158.03 L574.36 159.27 L573.14 157.08 L569.6 156.44 L580.7 153.22 L578.51 151.97 L579.34 150.34 L592.98 149.68 L578.63 149.52 L575.44 148.49 L573.08 146.42 Z M567.87 179.17 L578.25 176.58 L585.82 180.28 L585.03 181.94 L591 181.08 L592.39 183.51 L598.47 185.02 L600.67 190.22 L594.1 192.05 L603.97 195.5 L606.36 199.17 L611.02 199.43 L600.77 206.98 L595.09 201.34 L590.84 201.85 L589.16 204.17 L595.09 209.51 L595.06 213.59 L592.46 216.58 L582.8 212.13 L587.22 219.69 L573.82 215.59 L571.09 213.57 L572.85 212.4 L565.97 208.29 L555.83 210.14 L554.05 208.73 L557.99 205.71 L570.58 205.12 L572.72 201.65 L579.06 197.74 L578.99 194.62 L570.43 191.36 L573.01 190.37 L571.52 187.94 L567.68 186.4 L559.56 188.05 L549.46 187.18 L538.49 184.11 L542.98 182.37 L538.87 182.35 L541.26 178.51 L550.73 173.65 L558.89 172.66 L554.68 175.06 L554.92 177.39 L560.12 174.38 L568.58 172.86 L570.25 176.7 L567.87 179.17 Z M604.97 264.55 L597.5 272.51 L600.3 270.99 L602.39 271.95 L600.66 273.52 L608.59 275.04 L606.54 278.35 L609.27 277.57 L609.42 282.79 L606.83 286.78 L602.97 286.09 L603.93 281.8 L598.63 285.74 L596.5 285.58 L599.67 283.45 L596.5 282.35 L585.56 282.48 L588.14 279.54 L586.96 278.32 L596.8 268.44 L604.97 264.55 Z M359.58 276.16 L353.99 269.79 L348.91 267.94 L352.5 261.25 L349.51 259.36 L351.77 255.79 L350.23 252.58 L358.06 245.44 L354.73 242.67 L356.57 234.64 L355.23 228.74 L345.01 232.51 L344.44 227.84 L339.37 226.54 L382.92 188.17 L392.35 191.35 L418.21 186.3 L418.36 187.91 L424.39 185.18 L426.97 189.07 L433.85 186.44 L430.97 189.38 L441.01 187.83 L449.25 190.9 L455.86 191.32 L457.91 193.31 L451.74 195.28 L456.38 196.13 L468.22 194.97 L469.23 197.35 L474.38 195.34 L472.86 193.66 L476.06 192.31 L482.64 191.73 L485.27 194.82 L492.7 196.3 L502.27 195.76 L504 193.29 L507.25 192.6 L510.78 193.94 L507.69 197.71 L519.14 190.68 L515.88 186.7 L519.88 182.46 L525.81 179.7 L530.5 181.98 L530.79 186.31 L526.6 188.21 L531.46 189 L528.27 193.01 L534.68 189.94 L536.28 192.46 L533.16 195.39 L534.1 198.08 L544.1 191.79 L547.51 187.51 L555.42 188.35 L554.28 184.73 L382.92 188.17 Z M288.44 236.54 L290.35 238.17 L280.18 241.88 L281.27 238.73 L288.44 236.54 Z M257.92 211.98 L261.36 212.34 L264.89 213.99 L260.47 215.32 L259.03 213.66 L255.91 213.9 L257.92 211.98 Z M252.44 226.93 L258.68 226.59 L254.21 228.88 L252.44 226.93 Z M172.21 408.86 L175.64 412.38 L171.46 415.13 L170.75 411.48 L172.21 408.86 Z M172.2 406.55 L170.31 407.44 L169.5 405.79 L169.99 405.4 L172.2 406.55 Z M167.65 404.43 L169.34 405.14 L167.22 405 L167.65 404.43 Z M165.09 402.12 L166.15 403.96 L165.86 404.23 L164.23 404 L165.09 402.12 Z M159.38 399.71 L159.5 401.35 L158.36 400.51 L159.38 399.71 Z" />
    <path class="land" d="M359.58 276.16 L458.82 276.16 L460.94 274.41 L461.05 277.65 L469.56 280.05 L481.66 279.31 L491.52 285.67 L491.62 287.76 L493.45 287.43 L494.15 290.6 L497.1 292.74 L495.43 300.86 L488.91 308.18 L490.09 309.57 L506.1 304.1 L506.25 301.34 L508.2 300.61 L515.25 300.6 L524.72 294.32 L537.1 294.29 L549.23 283.18 L553.87 284.91 L551.79 291.12 L553.5 295.19 L540.18 300.34 L535.52 306.53 L535.98 308.97 L537.5 309.08 L537.64 307.4 L538.44 308.43 L537.73 309.74 L522.64 312.99 L529.28 313 L521.46 313.82 L515.28 322.18 L513.7 319.6 L513.98 324.66 L509.04 330.15 L510.82 326.82 L509.38 325.05 L510.09 321.21 L508.7 326.14 L506.39 325.42 L508.58 326.91 L507.77 337.88 L504.42 341.32 L492.4 347.42 L481.17 356.96 L479.77 363.49 L481.85 378.15 L479.27 385.92 L476.11 385.94 L474.46 382.84 L471.61 373.47 L473.03 370.39 L470.23 363.95 L464.4 365.34 L460.14 361.8 L447.3 362.91 L446.93 367.56 L441.11 367.61 L438.75 365.15 L432.56 364.66 L426.44 366.07 L414.93 373.73 L412.99 382.84 L411.41 382.98 L405.98 380.51 L401.59 366.53 L396.06 364.77 L392.6 368.44 L389.69 367.05 L382.96 355.5 L376.18 355.5 L375.56 357.42 L364.64 357.45 L351.67 351.92 L352.36 351.01 L342.66 351.88 L342.86 349.5 L339.82 344.94 L332.73 342.25 L331.8 327.53 L329.74 322.13 L330.39 315.84 L336.09 304.55 L345.87 291.94 L350.53 279.85 L355.76 280.5 L355.01 284.78 L359.58 276.16 Z M382.92 188.17 L339.37 226.54 L344.44 227.84 L345.01 232.51 L355.23 228.74 L356.57 234.64 L354.73 242.67 L358.06 245.44 L352.07 250.32 L349.8 247.27 L352.19 243.46 L351.02 239.95 L353 235.87 L344.86 235.49 L342.16 234.25 L339.73 229.81 L333.23 227.48 L328.32 227.84 L322.04 224.09 L317.45 224.98 L314.92 227.93 L298.96 231.44 L312.54 222.4 L292.27 230.61 L292.41 232.69 L285.91 235.77 L261.79 245.1 L232.68 252.07 L271.55 238.26 L280.23 232.45 L271.16 234.58 L271.46 232.4 L268.82 233.94 L270.01 231.8 L262.71 233.51 L267.79 229.4 L267.46 227.88 L262.23 228.7 L260.86 225.69 L263.77 223.29 L263.5 221.49 L267.77 219.08 L277.18 214.61 L292.43 212.05 L293.42 209.42 L297.76 207.84 L282.86 209.24 L279.57 208.26 L279.72 204.25 L295.91 200.58 L298.43 200.58 L295.3 202.6 L302.01 202.44 L301.25 194.72 L298.9 193.47 L303.56 191.41 L345.88 181.83 L349.11 182.64 L348.73 184.36 L355.69 183.85 L354.28 184.73 L382.92 188.17 Z M288.44 236.54 L290.35 238.17 L280.18 241.88 L281.27 238.73 L288.44 236.54 Z M257.92 211.98 L261.36 212.34 L264.89 213.99 L260.47 215.32 L259.03 213.66 L255.91 213.9 L257.92 211.98 Z M252.44 226.93 L258.68 226.59 L254.21 228.88 L252.44 226.93 Z M172.21 408.86 L175.64 412.38 L171.46 415.13 L170.75 411.48 L172.21 408.86 Z M172.2 406.55 L170.31 407.44 L169.5 405.79 L169.99 405.4 L172.2 406.55 Z M167.65 404.43 L169.34 405.14 L167.22 405 L167.65 404.43 Z M165.09 402.12 L166.15 403.96 L165.86 404.23 L164.23 404 L165.09 402.12 Z M159.38 399.71 L159.5 401.35 L158.36 400.51 L159.38 399.71 Z" />
    <path class="land" d="M1112.76 275.19 L1111.42 278.2 L1108.63 278.62 L1110.46 283.16 L1109.33 285.21 L1101.5 283.72 L1102.21 291.86 L1094.17 294.7 L1100.53 302.65 L1098.42 303.85 L1099.68 306.46 L1094.67 304.14 L1081.58 304.04 L1075.62 302.11 L1073.83 303.06 L1074.17 305.77 L1065.27 304.84 L1065.09 306.85 L1057.22 314.23 L1055.54 312.05 L1050.72 311.9 L1048.84 308.13 L1047.01 308.1 L1045.9 303.49 L1040.43 300.14 L1030.03 301.17 L1014.35 291.65 L1005.65 294.34 L1010.18 311.25 L1008.31 311.48 L1001.96 306.58 L1000.85 307.51 L1005.95 312.9 L1002.98 314.37 L999.17 313.24 L999.21 317.13 L1001.78 317.4 L1001.49 320.56 L1004.79 322.12 L1006.61 330.24 L1011.97 326.69 L1018.85 326.39 L1034.93 333.51 L1036.11 337.42 L1035.33 346.58 L1037.16 347.26 L1035.98 349.8 L1038.8 356.46 L1041.9 357.25 L1042.75 360.24 L1039.89 364.45 L1044.27 369.7 L1048.36 371.74 L1049.07 375.83 L1051.71 378.72 L1046.29 381.12 L1045.45 386.51 L1028.74 383.44 L1026.36 377.75 L1024.35 376.92 L1017.66 380 L1012.62 378.46 L1004.21 373.57 L997.29 362.97 L992.57 362.18 L991.34 363.99 L987.21 359.08 L987.39 355.71 L984.87 352.18 L979.72 349.64 L976.38 345.22 L978.43 340 L976.38 345.22 L979.72 349.64 L984.87 352.18 L987.39 355.71 L987.21 359.08 L991.34 363.99 L984.01 263.97 L978.56 264.09 L972.67 268.95 L973.13 272.23 L968.77 269.62 L967.27 278.9 L971.08 281.97 L973.73 281.84 L979.01 287.95 L978 290.65 L974.62 291.4 L972.05 296.11 L981.95 308.95 L979.71 311.98 L969.64 305.76 L948.27 301.48 L934.65 293.21 L937.19 292.48 L939.53 288.67 L937.15 286.87 L942.15 285.01 L938.75 284.75 L938.47 282.74 L943.51 281.14 L943.07 273.46 L925.38 269.07 L923.63 266.25 L920.77 266.04 L920.89 263.75 L918.14 261.22 L911.45 262.26 L908.94 257.94 L913.52 256.72 L905.54 250.28 L905.28 247.04 L895.57 244.34 L891.51 238.67 L892.68 237.3 L890.92 233.29 L895.38 227.72 L891.53 225.7 L900.41 215.77 L895.03 212.93 L895.68 210.24 L892.14 207.19 L893.38 203.7 L888.69 199.1 L890.75 196.09 L885.47 193.45 L885.22 190.69 L894.84 187.41 L908.84 190.7 L924.63 197.05 L925.75 199.72 L918.37 202.91 L901.64 200.36 L907.48 203.31 L909.58 209.38 L916.75 211.7 L914.17 207.94 L915.7 206.39 L924.03 208.94 L926.34 207.94 L923.29 204.95 L929.15 200.99 L935.44 202.63 L936.22 199.86 L932.79 197.47 L933.39 195.09 L930.25 192.64 L939.15 193.9 L941.75 196.12 L938.11 196.62 L938.98 198.84 L941.91 200.21 L946.3 199.34 L946.01 196.79 L960.5 191.51 L962.84 191.7 L961 194.09 L964.93 194.51 L975.64 191.42 L980.28 193.79 L982.31 191.18 L977.99 188.92 L978.83 187.63 L988.23 188.81 L1006.49 194.53 L1007.27 192.46 L998.6 189.17 L994.21 183.09 L998.52 175.5 L1006.75 176.48 L1008.84 178.57 L1008.24 181.64 L1013.61 185.54 L1016.4 190.87 L1021.24 193.28 L1019.07 201.62 L1022.94 202.21 L1026.03 199.72 L1027.04 195.84 L1023.84 193.59 L1023.55 190.99 L1020.08 190.67 L1017.95 188.5 L1017.7 184.61 L1011.77 181.49 L1015.13 178.94 L1012.5 176.27 L1016.9 178.27 L1018.41 181.92 L1022.02 182.62 L1018.72 179.88 L1028.22 178.19 L1035.21 180.34 L1026.66 173.24 L1043.46 172.17 L1039.42 170.25 L1040.34 167.86 L1053.49 164.51 L1063.38 164.98 L1072.32 163.15 L1071.92 160.14 L1076.37 158.73 L1089.61 162.97 L1098.89 162.16 L1107.29 163.89 L1113.03 167.1 L1105.73 171.28 L1116.74 172.03 L1120.98 174.4 L1124.89 172.85 L1150.01 175.75 L1146.59 172.92 L1157.88 173.55 L1183.44 184.02 L1181.28 180.02 L1188.08 181.73 L1205 181.34 L1198.2 177.83 L1199.71 176.21 L1229.01 178.64 L1246.46 183.8 L1263.91 183.71 L1277.64 189.24 L1297.26 188.67 L1307.61 192.15 L1309.45 190.89 L1301.96 186.67 L1330.28 189.38 L1337.15 191.09 L1361.17 207.08 L1359.72 208.88 L1355.24 208.58 L1374.25 218.12 L1367.05 217.21 L1360.07 220.85 L1357.51 226.41 L1358.71 228.34 L1350.38 225.41 L1345.95 228.74 L1342.55 227.16 L1341.58 228.98 L1336.5 228.4 L1339.56 235.36 L1346.56 238.06 L1353.13 244.38 L1350.16 244.54 L1352.63 248.2 L1356.06 250.09 L1352.39 252.33 L1356.3 257.37 L1352.18 258.46 L1355.48 262.97 L1354.26 267.13 L1330.78 247.78 L1326.11 241.73 L1324.16 237.13 L1328.29 236.16 L1328.64 226.38 L1330.43 223.01 L1325.68 217.09 L1322.24 217.45 L1324.58 220.9 L1321.92 225.53 L1313.09 220.34 L1306.46 221.77 L1306.45 228.87 L1312.08 231.49 L1301.29 233.05 L1298.17 229.95 L1292.36 229.31 L1290.53 231.4 L1270.11 231.94 L1263.96 250.64 L1269.86 251.19 L1278.19 254.93 L1278.46 252.73 L1282.5 253.01 L1291.81 257.88 L1304.02 278.66 L1304.2 288.36 L1300.6 301.65 L1297.32 304.34 L1291.3 302.17 L1288.67 307.06 L1286.25 303.92 L1288.08 303.8 L1285.29 298.39 L1281.86 294.47 L1283.99 292.86 L1288.96 293.67 L1285.8 278.52 L1278.88 281.64 L1273.39 281.63 L1262.55 274.18 L1255.32 272.74 L1239.25 259.19 L1228.71 256.24 L1220.49 257.16 L1219.26 259.36 L1223.79 262.88 L1222.97 269.05 L1224.33 271.02 L1221.17 273.86 L1206.51 270.55 L1203.28 273.72 L1196.41 275.58 L1188.18 274.89 L1179.87 270.43 L1168.94 271.26 L1162.79 269.37 L1160.15 266.02 L1146.78 262.5 L1145.82 267.13 L1148.74 269.77 L1146.98 272.89 L1126.55 268.07 L1117.38 274.04 L1112.76 275.19 Z" />
    <path class="land" d="M1010.18 311.25 L1005.65 294.34 L1014.35 291.65 L1030.03 301.17 L1040.43 300.14 L1045.9 303.49 L1047.01 308.1 L1048.84 308.13 L1050.72 311.9 L1055.54 312.05 L1057.22 314.23 L1065.09 306.85 L1066.35 307.3 L1064.15 310.28 L1074.99 313.29 L1071.19 316.61 L1066.65 316.28 L1065.87 312.86 L1061.16 313.93 L1059.75 319.44 L1056.53 319.22 L1056.1 321.25 L1059.18 322.36 L1060.92 325.8 L1059.97 330.49 L1054.7 329.48 L1054.09 326.64 L1043.97 322.4 L1035.78 317.04 L1032.67 312.28 L1027.18 311.66 L1024.1 307.05 L1018.42 304.62 L1013.2 308.87 L1014.4 311.19 L1010.18 311.25 Z" />
    <path class="land" d="M1433.6 526.41 L1438.7 533.36 L1438.03 534.67 L1435.21 533.35 L1433.6 526.41 Z M1425.74 519.99 L1427.57 523.89 L1426.21 525.13 L1424.75 520.59 L1417.84 515.72 L1419.03 514.6 L1425.74 519.99 Z M1419.62 530.12 L1412.95 532.33 L1407.44 529.68 L1407.87 528.25 L1413.77 528.56 L1415.13 526.22 L1415.36 528.68 L1417.72 528.33 L1421.38 525.08 L1421.09 522.35 L1423.55 522.26 L1424.09 525.6 L1419.62 530.12 Z M1378.24 515.07 L1392.67 520.92 L1397.5 525.64 L1397.95 528.37 L1404.58 531.25 L1405.4 533.71 L1401.59 534.21 L1402.26 537.3 L1407.85 545.28 L1410.2 545.12 L1409.83 547.18 L1415.7 550.8 L1415.1 552.14 L1404 550.04 L1397.31 540.46 L1392.15 538.43 L1385.95 541.29 L1386.16 544.71 L1382.8 546.31 L1376.37 545.34 L1378.24 515.07 Z" />
    <path class="land" d="M1378.24 515.07 L1376.37 545.34 L1373.07 541.53 L1369 540.59 L1362.69 542.06 L1367.41 536.99 L1364.98 528.04 L1353.91 523.72 L1347.97 519.43 L1345.06 522.09 L1344.29 518.37 L1341.25 516.09 L1348.65 514.51 L1348.35 513.28 L1342.35 513.27 L1340.8 510.5 L1337.15 509.64 L1335.46 507.34 L1343.12 504.71 L1349.69 506.61 L1351.24 515.85 L1355.37 518.63 L1358.99 513.7 L1363.78 510.9 L1378.24 515.07 Z M1349.3 535.01 L1349.14 531.52 L1350.93 528.28 L1351.63 531.85 L1349.3 535.01 Z M1325.45 516.2 L1334.98 517.36 L1336.31 520.91 L1332.94 519 L1324.37 518.75 L1325.45 516.2 Z M1324.72 492.89 L1325.08 495.43 L1327.51 495.83 L1327.93 497.73 L1327.76 501.79 L1325.64 501.33 L1325.02 504.16 L1326.69 506.61 L1325.54 507.17 L1322.65 498.29 L1324.72 492.89 Z M1320.09 520.6 L1317.3 519.74 L1316.58 517.75 L1320.74 517.52 L1321.69 519.06 L1320.09 520.6 Z M1295.91 496.91 L1309.03 498.73 L1313.02 495.36 L1313.76 496.4 L1310.53 501 L1307.45 501.9 L1293.08 501.89 L1292.49 505.4 L1296.11 509.53 L1298.36 507.43 L1306.02 505.85 L1305.66 507.99 L1303.88 507.31 L1298.4 511.84 L1302.09 517.79 L1301.55 519.06 L1295.91 496.91 Z" />
    <path class="land" d="M565.68 596.7 L567.38 605.59 L576.08 606.83 L578.35 614.26 L582.81 614.56 L582.12 626.63 L578.95 630.19 L567.19 628.97 L570.24 621.91 L569.44 619.86 L556.53 613.9 L548.39 606.33 L550.86 594.18 L561.52 592.89 L565.68 596.7 Z" />
    <path class="land" d="M1009.9 414.74 L1015.19 425.65 L1012.35 426.9 L1011.72 430.55 L1001.44 434.67 L997.98 437.95 L985.72 441.26 L983.25 444.01 L977.13 444.3 L973 432.33 L975.52 421.34 L989.24 422.72 L990.35 424.27 L998.39 416.52 L1009.9 414.74 Z" />
    <path class="land" d="M937.96 366.64 L942.42 367.38 L944.77 364.28 L947.71 363.64 L949.42 361.29 L945.01 356.65 L953.25 353.61 L964.34 358.13 L976.54 367.47 L987.5 368.29 L988.75 370.5 L991.53 370.38 L993.55 374.39 L999.41 379.03 L1000.28 384.05 L1002.94 388.02 L1005.31 388.61 L1008.44 396.16 L1021.41 397.52 L1023.54 400.81 L1021.64 410.1 L1009.9 414.74 L998.39 416.52 L990.35 424.27 L989.24 422.72 L975.52 421.34 L973.42 427.06 L965.12 412.48 L957.37 404.1 L954.09 392.97 L949.86 390.2 L939.17 372.65 L937.2 372.67 L937.96 366.64 Z" />
    <path class="land" d="M926.52 339.78 L927.23 338.64 L933.36 337.32 L931.37 340.16 L926.52 339.78 Z" />
    <path class="land" d="M924.71 339.95 L929.03 339.68 L931.53 340.53 L927.78 342.42 L924.71 339.95 Z" />
    <path class="land" d="M791.61 339.65 L795.61 351.34 L794.89 353.14 L785.71 356.05 L785.51 359.49 L779.35 363.65 L765.71 369.04 L765.07 377.03 L754.73 378.13 L750.07 387.94 L744.39 392.96 L740.71 403.13 L731.58 403.49 L742.52 381.05 L750.01 372.77 L753.71 372.25 L762.32 363.96 L761.49 358.18 L763.69 351.74 L773.17 344.56 L777.14 336.91 L791.61 339.65 Z" />
    <path class="land" d="M948.05 400.81 L900.39 400.81 L898.7 367.19 L897.27 363.45 L898.6 356.36 L903.81 356.29 L913.56 359.61 L921.38 356.43 L924.22 357.01 L925.5 359.32 L926.27 357.8 L932.6 359.16 L934.42 357.99 L937.76 365.97 L934.53 374.58 L927.4 364.77 L942.81 391.86 L942.37 395.69 L948.05 400.81 Z" />
    <path class="land" d="M897.53 354.83 L900.74 410.09 L896.11 410.1 L896.13 412.05 L863.53 394.26 L856.75 398.53 L854.43 395.98 L848.05 393.97 L843.04 388.91 L841.19 389.76 L837.11 381.79 L838.65 379.85 L838.96 368.49 L837.31 362.23 L839.2 361.15 L839.01 357.26 L844.67 352.65 L844.76 349.08 L859.59 353.13 L861.61 357.26 L875.11 362.42 L878.73 359.07 L877.61 355.52 L881.38 351.08 L889.37 351.4 L890.84 353.47 L897.53 354.83 Z" />
    <path class="land" d="M995.46 465.82 L984.22 479.76 L978.88 479.96 L971.57 484.79 L967.09 483.22 L962.19 487.1 L956.28 486.28 L951.04 482.33 L948.18 482.33 L942.08 472.36 L937.32 467.16 L934.8 466.83 L936.14 464.19 L938.31 464.07 L939.83 453.62 L946.1 444.57 L948.08 436.01 L952.85 436.98 L953.97 433.51 L956.53 435.62 L962.68 435.55 L969.3 440.51 L972.54 444.74 L969.89 448.97 L970.37 451.66 L974.55 452.24 L973.72 453.89 L978.5 460.34 L995.46 465.82 Z" />
    <path class="land" d="M972.54 444.74 L975.48 444.01 L976.5 445.44 L976.45 447.37 L974.17 448.48 L975.97 449.75 L974.55 452.24 L970.37 451.66 L969.89 448.97 L972.54 444.74 Z" />
    <path class="land" d="M999.65 449.99 L999.95 459.09 L995.46 465.82 L978.5 460.34 L973.72 453.89 L975.97 449.75 L980.1 454.48 L999.65 449.99 Z" />
    <path class="land" d="M939.09 507.4 L921.34 509.22 L922.57 500.22 L927.86 492.75 L926.21 492.12 L926.41 486.69 L928.08 485.42 L936.87 485.39 L939.37 483.25 L941.35 486.48 L943.71 494.14 L939.06 502.48 L939.09 507.4 Z" />
    <path class="land" d="M924.79 508.26 L926.15 513.61 L922.79 513.9 L921.51 516.54 L919.02 516.18 L920.16 510.51 L924.79 508.26 Z" />
    <path class="land" d="M869.18 305.08 L860.85 298.71 L857.97 295.15 L858.6 293.26 L871.27 294.95 L872.14 300.87 L869.51 302.56 L869.18 305.08 Z" />
    <path class="land" d="M883.58 306.6 L886.18 311.12 L879.13 313.4 L877.47 312.28 L877.65 307.83 L883.58 306.6 Z" />
    <path class="land" d="M868.86 290.18 L873.84 289.18 L879.39 295.38 L883.7 296.25 L882.89 298.86 L885.41 302.51 L883.58 306.6 L880.61 306.94 L881.15 304.93 L877.31 302.23 L875.44 304.34 L871.28 301.08 L872.48 298.72 L870.54 296.96 L871.2 293.24 L868.86 290.18 Z" />
    <path class="land" d="M875.71 303.94 L873.56 304.91 L871.71 308.28 L868.84 305.87 L869.51 302.56 L871.28 301.08 L875.71 303.94 Z" />
    <path class="land" d="M877.09 308.74 L874.84 305.37 L877.31 302.23 L881.15 304.93 L880.61 306.94 L877.09 308.74 Z" />
    <path class="land" d="M548.27 453.01 L551.5 452.57 L551.17 456.03 L547.02 456.13 L548.27 453.01 Z" />
    <path class="land" d="M926.41 486.69 L921.77 481.62 L914.67 482.51 L902.73 466.65 L897.66 462.96 L900.29 461.57 L902.36 455.27 L905.29 454.64 L909.3 459.02 L918.35 459.34 L922.47 455.19 L925.97 457.9 L928.06 457.43 L932.19 451.53 L930.75 447.38 L935.34 446.42 L935.53 453.2 L937.68 455.03 L938.89 462.65 L934.8 466.83 L939.44 469.43 L944.58 477.42 L936.87 485.39 L926.41 486.69 Z" />
  </g>

  <!-- Special Small Island Reference Dots for Precision Navigation -->
  <g id="tiny-island-reference-dots">
    <circle class="island-dot" cx="426.81" cy="515.42" r="8"><title>갈라파고스 제도 실제 섬 위치</title></circle>
    <circle class="island-dot" cx="365.64" cy="636.95" r="8"><title>이스터섬 실제 섬 위치</title></circle>
    <circle class="island-dot" cx="101.27" cy="575.24" r="8"><title>사모아 실제 섬 위치</title></circle>
    <circle class="island-dot" cx="185.01" cy="587.63" r="8"><title>보라보라 실제 섬 위치</title></circle>
  </g>

  <!-- Landmark Interactive Map Trigger Pins -->
  <g id="landmark-pins">
    <!-- Pin 1: 경복궁 -->
    <g class="pin" id="landmark-pin-gyeongbokgung" data-landmark-id="gyeongbokgung" data-name="경복궁" data-country="대한민국" transform="translate(1285.71 328.47)" tabindex="0" role="button" aria-label="경복궁">
      <path class="pin-shape" d="M0,-18 C-9,-18 -16,-11 -16,-2 C-16,9 0,22 0,22 C0,22 16,9 16,-2 C16,-11 9,-18 0,-18 Z"/>
      <circle class="pin-core" cx="0" cy="-3" r="5"/>
      <text class="pin-label" x="0" y="36">경복궁</text>
      <title>경복궁 / 대한민국</title>
    </g>

    <!-- Pin 2: 만리장성 -->
    <g class="pin" id="landmark-pin-greatwall_30" data-landmark-id="greatwall_30" data-name="만리장성" data-country="중국" transform="translate(1239.79 315.29)" tabindex="0" role="button" aria-label="만리장성">
      <path class="pin-shape" d="M0,-18 C-9,-18 -16,-11 -16,-2 C-16,9 0,22 0,22 C0,22 16,9 16,-2 C16,-11 9,-18 0,-18 Z"/>
      <circle class="pin-core" cx="0" cy="-3" r="5"/>
      <text class="pin-label" x="0" y="36">만리장성</text>
      <title>만리장성 / 중국</title>
    </g>

    <!-- Pin 3: 타지마할 -->
    <g class="pin" id="landmark-pin-tajmahal_30" data-landmark-id="tajmahal_30" data-name="타지마할" data-country="인도" transform="translate(1109.91 376.78)" tabindex="0" role="button" aria-label="타지마할">
      <path class="pin-shape" d="M0,-18 C-9,-18 -16,-11 -16,-2 C-16,9 0,22 0,22 C0,22 16,9 16,-2 C16,-11 9,-18 0,-18 Z"/>
      <circle class="pin-core" cx="0" cy="-3" r="5"/>
      <text class="pin-label" x="0" y="36">타지마할</text>
      <title>타지마할 / 인도</title>
    </g>

    <!-- Pin 4: 후지산 -->
    <g class="pin" id="landmark-pin-fuji_30" data-landmark-id="fuji_30" data-name="후지산" data-country="일본" transform="translate(1335.76 338.76)" tabindex="0" role="button" aria-label="후지산">
      <path class="pin-shape" d="M0,-18 C-9,-18 -16,-11 -16,-2 C-16,9 0,22 0,22 C0,22 16,9 16,-2 C16,-11 9,-18 0,-18 Z"/>
      <circle class="pin-core" cx="0" cy="-3" r="5"/>
      <text class="pin-label" x="0" y="36">후지산</text>
      <title>후지산 / 일본</title>
    </g>

    <!-- Pin 5: 앙코르와트 -->
    <g class="pin" id="landmark-pin-angkorwat_30" data-landmark-id="angkorwat_30" data-name="앙코르와트" data-country="캄보디아" transform="translate(1222.73 440.7)" tabindex="0" role="button" aria-label="앙코르와트">
      <path class="pin-shape" d="M0,-18 C-9,-18 -16,-11 -16,-2 C-16,9 0,22 0,22 C0,22 16,9 16,-2 C16,-11 9,-18 0,-18 Z"/>
      <circle class="pin-core" cx="0" cy="-3" r="5"/>
      <text class="pin-label" x="0" y="36">앙코르와트</text>
      <title>앙코르와트 / 캄보디아</title>
    </g>

    <!-- Pin 6: 에펠탑 -->
    <g class="pin" id="landmark-pin-eiffel_30" data-landmark-id="eiffel_30" data-name="에펠탑" data-country="프랑스" transform="translate(808.23 276.8)" tabindex="0" role="button" aria-label="에펠탑">
      <path class="pin-shape" d="M0,-18 C-9,-18 -16,-11 -16,-2 C-16,9 0,22 0,22 C0,22 16,9 16,-2 C16,-11 9,-18 0,-18 Z"/>
      <circle class="pin-core" cx="0" cy="-3" r="5"/>
      <text class="pin-label" x="0" y="36">에펠탑</text>
      <title>에펠탑 / 프랑스</title>
    </g>

    <!-- Pin 7: 콜로세움 -->
    <g class="pin" id="landmark-pin-colosseum_30" data-landmark-id="colosseum_30" data-name="콜로세움" data-country="이탈리아" transform="translate(846.76 308.58)" tabindex="0" role="button" aria-label="콜로세움">
      <path class="pin-shape" d="M0,-18 C-9,-18 -16,-11 -16,-2 C-16,9 0,22 0,22 C0,22 16,9 16,-2 C16,-11 9,-18 0,-18 Z"/>
      <circle class="pin-core" cx="0" cy="-3" r="5"/>
      <text class="pin-label" x="0" y="36">콜로세움</text>
      <title>콜로세움 / 이탈리아</title>
    </g>

    <!-- Pin 8: 빅벤 -->
    <g class="pin" id="landmark-pin-bigben_30" data-landmark-id="bigben_30" data-name="빅벤" data-country="영국" transform="translate(799.56 264.94)" tabindex="0" role="button" aria-label="빅벤">
      <path class="pin-shape" d="M0,-18 C-9,-18 -16,-11 -16,-2 C-16,9 0,22 0,22 C0,22 16,9 16,-2 C16,-11 9,-18 0,-18 Z"/>
      <circle class="pin-core" cx="0" cy="-3" r="5"/>
      <text class="pin-label" x="0" y="36">빅벤</text>
      <title>빅벤 / 영국</title>
    </g>

    <!-- Pin 9: 사그라다 파밀리아 -->
    <g class="pin" id="landmark-pin-sagrada_30" data-landmark-id="sagrada_30" data-name="사그라다 파밀리아" data-country="스페인" transform="translate(808.16 310.82)" tabindex="0" role="button" aria-label="사그라다 파밀리아">
      <path class="pin-shape" d="M0,-18 C-9,-18 -16,-11 -16,-2 C-16,9 0,22 0,22 C0,22 16,9 16,-2 C16,-11 9,-18 0,-18 Z"/>
      <circle class="pin-core" cx="0" cy="-3" r="5"/>
      <text class="pin-label" x="0" y="36">사그라다</text>
      <title>사그라다 파밀리아 / 스페인</title>
    </g>

    <!-- Pin 10: 산토리니 -->
    <g class="pin" id="landmark-pin-santorini_30" data-landmark-id="santorini_30" data-name="산토리니" data-country="그리스" transform="translate(897.91 333.97)" tabindex="0" role="button" aria-label="산토리니">
      <path class="pin-shape" d="M0,-18 C-9,-18 -16,-11 -16,-2 C-16,9 0,22 0,22 C0,22 16,9 16,-2 C16,-11 9,-18 0,-18 Z"/>
      <circle class="pin-core" cx="0" cy="-3" r="5"/>
      <text class="pin-label" x="0" y="36">산토리니</text>
      <title>산토리니 / 그리스</title>
    </g>

    <!-- Pin 11: 자유의 여신상 -->
    <g class="pin" id="landmark-pin-statue_30" data-landmark-id="statue_30" data-name="자유의 여신상" data-country="미국" transform="translate(521.02 314.11)" tabindex="0" role="button" aria-label="자유의 여신상">
      <path class="pin-shape" d="M0,-18 C-9,-18 -16,-11 -16,-2 C-16,9 0,22 0,22 C0,22 16,9 16,-2 C16,-11 9,-18 0,-18 Z"/>
      <circle class="pin-core" cx="0" cy="-3" r="5"/>
      <text class="pin-label" x="0" y="36">자유의여신상</text>
      <title>자유의 여신상 / 미국</title>
    </g>

    <!-- Pin 12: 그랜드캐니언 -->
    <g class="pin" id="landmark-pin-grandcanyon_30" data-landmark-id="grandcanyon_30" data-name="그랜드캐니언" data-country="미국" transform="translate(368.37 335.3)" tabindex="0" role="button" aria-label="그랜드캐니언">
      <path class="pin-shape" d="M0,-18 C-9,-18 -16,-11 -16,-2 C-16,9 0,22 0,22 C0,22 16,9 16,-2 C16,-11 9,-18 0,-18 Z"/>
      <circle class="pin-core" cx="0" cy="-3" r="5"/>
      <text class="pin-label" x="0" y="36">그랜드캐니언</text>
      <title>그랜드캐니언 / 미국</title>
    </g>

    <!-- Pin 13: 치첸이트사 -->
    <g class="pin" id="landmark-pin-chichen_30" data-landmark-id="chichen_30" data-name="치첸이트사" data-country="멕시코" transform="translate(443.51 406.92)" tabindex="0" role="button" aria-label="치첸이트사">
      <path class="pin-shape" d="M0,-18 C-9,-18 -16,-11 -16,-2 C-16,9 0,22 0,22 C0,22 16,9 16,-2 C16,-11 9,-18 0,-18 Z"/>
      <circle class="pin-core" cx="0" cy="-3" r="5"/>
      <text class="pin-label" x="0" y="36">치첸이트사</text>
      <title>치첸이트사 / 멕시코</title>
    </g>

    <!-- Pin 14: CN타워 -->
    <g class="pin" id="landmark-pin-cntower_30" data-landmark-id="cntower_30" data-name="CN타워" data-country="캐나다" transform="translate(505.75 300.53)" tabindex="0" role="button" aria-label="CN타워">
      <path class="pin-shape" d="M0,-18 C-9,-18 -16,-11 -16,-2 C-16,9 0,22 0,22 C0,22 16,9 16,-2 C16,-11 9,-18 0,-18 Z"/>
      <circle class="pin-core" cx="0" cy="-3" r="5"/>
      <text class="pin-label" x="0" y="36">CN타워</text>
      <title>CN타워 / 캐나다</title>
    </g>

    <!-- Pin 15: 나이아가라 폭포 -->
    <g class="pin" id="landmark-pin-niagara_30" data-landmark-id="niagara_30" data-name="나이아가라 폭포" data-country="캐나다·미국" transform="translate(505.94 303.07)" tabindex="0" role="button" aria-label="나이아가라 폭포">
      <path class="pin-shape" d="M0,-18 C-9,-18 -16,-11 -16,-2 C-16,9 0,22 0,22 C0,22 16,9 16,-2 C16,-11 9,-18 0,-18 Z"/>
      <circle class="pin-core" cx="0" cy="-3" r="5"/>
      <text class="pin-label" x="0" y="36">나이아가라</text>
      <title>나이아가라 폭포 / 캐나다·미국</title>
    </g>

    <!-- Pin 16: 예수상 -->
    <g class="pin" id="landmark-pin-christ_30" data-landmark-id="christ_30" data-name="예수상" data-country="브라질" transform="translate(626.78 609.59)" tabindex="0" role="button" aria-label="예수상">
      <path class="pin-shape" d="M0,-18 C-9,-18 -16,-11 -16,-2 C-16,9 0,22 0,22 C0,22 16,9 16,-2 C16,-11 9,-18 0,-18 Z"/>
      <circle class="pin-core" cx="0" cy="-3" r="5"/>
      <text class="pin-label" x="0" y="36">예수상</text>
      <title>예수상 / 브라질</title>
    </g>

    <!-- Pin 17: 마추픽추 -->
    <g class="pin" id="landmark-pin-machu_30" data-landmark-id="machu_30" data-name="마추픽추" data-country="페루" transform="translate(504.66 564.13)" tabindex="0" role="button" aria-label="마추픽추">
      <path class="pin-shape" d="M0,-18 C-9,-18 -16,-11 -16,-2 C-16,9 0,22 0,22 C0,22 16,9 16,-2 C16,-11 9,-18 0,-18 Z"/>
      <circle class="pin-core" cx="0" cy="-3" r="5"/>
      <text class="pin-label" x="0" y="36">마추픽추</text>
      <title>마추픽추 / 페루</title>
    </g>

    <!-- Pin 18: 이과수 폭포 -->
    <g class="pin" id="landmark-pin-iguazu_30" data-landmark-id="iguazu_30" data-name="이과수 폭포" data-country="브라질·아르헨티나" transform="translate(583.03 622.33)" tabindex="0" role="button" aria-label="이과수 폭포">
      <path class="pin-shape" d="M0,-18 C-9,-18 -16,-11 -16,-2 C-16,9 0,22 0,22 C0,22 16,9 16,-2 C16,-11 9,-18 0,-18 Z"/>
      <circle class="pin-core" cx="0" cy="-3" r="5"/>
      <text class="pin-label" x="0" y="36">이과수폭포</text>
      <title>이과수 폭포 / 브라질·아르헨티나</title>
    </g>

    <!-- Pin 19: 갈라파고스 제도 -->
    <g class="pin" id="landmark-pin-galapagos_30" data-landmark-id="galapagos_30" data-name="갈라파고스" data-country="에콰도르" transform="translate(426.81 507.42)" tabindex="0" role="button" aria-label="갈라파고스 제도">
      <path class="pin-shape" d="M0,-18 C-9,-18 -16,-11 -16,-2 C-16,9 0,22 0,22 C0,22 16,9 16,-2 C16,-11 9,-18 0,-18 Z"/>
      <circle class="pin-core" cx="0" cy="-3" r="5"/>
      <text class="pin-label" x="0" y="36">갈라파고스</text>
      <title>갈라파고스 / 에콰도르</title>
    </g>

    <!-- Pin 20: 모아이 석상 -->
    <g class="pin" id="landmark-pin-moai_30" data-landmark-id="moai_30" data-name="모아이 석상" data-country="칠레령 이스터섬" transform="translate(365.64 628.95)" tabindex="0" role="button" aria-label="모아이 석상">
      <path class="pin-shape" d="M0,-18 C-9,-18 -16,-11 -16,-2 C-16,9 0,22 0,22 C0,22 16,9 16,-2 C16,-11 9,-18 0,-18 Z"/>
      <circle class="pin-core" cx="0" cy="-3" r="5"/>
      <text class="pin-label" x="0" y="36">모아이석상</text>
      <title>모아이 석상 / 칠레령 이스터섬</title>
    </g>

    <!-- Pin 21: 기자 피라미드 -->
    <g class="pin" id="landmark-pin-pyramid_30" data-landmark-id="pyramid_30" data-name="기자 피라미드" data-country="이집트" transform="translate(922.64 363.75)" tabindex="0" role="button" aria-label="기자 피라미드">
      <path class="pin-shape" d="M0,-18 C-9,-18 -16,-11 -16,-2 C-16,9 0,22 0,22 C0,22 16,9 16,-2 C16,-11 9,-18 0,-18 Z"/>
      <circle class="pin-core" cx="0" cy="-3" r="5"/>
      <text class="pin-label" x="0" y="36">피라미드</text>
      <title>기자 피라미드 / 이집트</title>
    </g>

    <!-- Pin 22: 스핑크스 -->
    <g class="pin" id="landmark-pin-sphinx_30" data-landmark-id="sphinx_30" data-name="스핑크스" data-country="이집트" transform="translate(935.65 368.77)" tabindex="0" role="button" aria-label="스핑크스">
      <path class="pin-shape" d="M0,-18 C-9,-18 -16,-11 -16,-2 C-16,9 0,22 0,22 C0,22 16,9 16,-2 C16,-11 9,-18 0,-18 Z"/>
      <circle class="pin-core" cx="0" cy="-3" r="5"/>
      <text class="pin-label" x="0" y="36">스핑크스</text>
      <title>스핑크스 / 이집트</title>
    </g>

    <!-- Pin 23: 킬리만자로 -->
    <g class="pin" id="landmark-pin-kilimanjaro_30" data-landmark-id="kilimanjaro_30" data-name="킬리만자로" data-country="탄자니아" transform="translate(953.17 517.24)" tabindex="0" role="button" aria-label="킬리만자로">
      <path class="pin-shape" d="M0,-18 C-9,-18 -16,-11 -16,-2 C-16,9 0,22 0,22 C0,22 16,9 16,-2 C16,-11 9,-18 0,-18 Z"/>
      <circle class="pin-core" cx="0" cy="-3" r="5"/>
      <text class="pin-label" x="0" y="36">킬리만자로</text>
      <title>킬리만자로 / 탄자니아</title>
    </g>

    <!-- Pin 24: 빅토리아 폭포 -->
    <g class="pin" id="landmark-pin-victoria_30" data-landmark-id="victoria_30" data-name="빅토리아 폭포" data-country="잠비아·짐바브웨" transform="translate(904.56 586.24)" tabindex="0" role="button" aria-label="빅토리아 폭포">
      <path class="pin-shape" d="M0,-18 C-9,-18 -16,-11 -16,-2 C-16,9 0,22 0,22 C0,22 16,9 16,-2 C16,-11 9,-18 0,-18 Z"/>
      <circle class="pin-core" cx="0" cy="-3" r="5"/>
      <text class="pin-label" x="0" y="36">빅토리아폭포</text>
      <title>빅토리아 폭포 / 잠비아·짐바브웨</title>
    </g>

    <!-- Pin 25: 하산 2세 모스크 -->
    <g class="pin" id="landmark-pin-hassan_30" data-landmark-id="hassan_30" data-name="하산 2세 모스크" data-country="모로코" transform="translate(770.32 346.89)" tabindex="0" role="button" aria-label="하산 2세 모스크">
      <path class="pin-shape" d="M0,-18 C-9,-18 -16,-11 -16,-2 C-16,9 0,22 0,22 C0,22 16,9 16,-2 C16,-11 9,-18 0,-18 Z"/>
      <circle class="pin-core" cx="0" cy="-3" r="5"/>
      <text class="pin-label" x="0" y="36">하산2세사원</text>
      <title>하산 2세 모스크 / 모로코</title>
    </g>

    <!-- Pin 26: 시드니 오페라하우스 -->
    <g class="pin" id="landmark-pin-opera_30" data-landmark-id="opera_30" data-name="시드니 오페라하우스" data-country="호주" transform="translate(1387.51 660.24)" tabindex="0" role="button" aria-label="시드니 오페라하우스">
      <path class="pin-shape" d="M0,-18 C-9,-18 -16,-11 -16,-2 C-16,9 0,22 0,22 C0,22 16,9 16,-2 C16,-11 9,-18 0,-18 Z"/>
      <circle class="pin-core" cx="0" cy="-3" r="5"/>
      <text class="pin-label" x="0" y="36">오페라하우스</text>
      <title>시드니 오페라하우스 / 호주</title>
    </g>

    <!-- Pin 27: 울루루 -->
    <g class="pin" id="landmark-pin-uluru_30" data-landmark-id="uluru_30" data-name="울루루" data-country="호주" transform="translate(1322.7 620.7)" tabindex="0" role="button" aria-label="울루루">
      <path class="pin-shape" d="M0,-18 C-9,-18 -16,-11 -16,-2 C-16,9 0,22 0,22 C0,22 16,9 16,-2 C16,-11 9,-18 0,-18 Z"/>
      <circle class="pin-core" cx="0" cy="-3" r="5"/>
      <text class="pin-label" x="0" y="36">울루루</text>
      <title>울루루 / 호주</title>
    </g>

    <!-- Pin 28: 밀포드사운드 -->
    <g class="pin" id="landmark-pin-milford_30" data-landmark-id="milford_30" data-name="밀포드사운드" data-country="뉴질랜드" transform="translate(1418.66 710.16)" tabindex="0" role="button" aria-label="밀포드사운드">
      <path class="pin-shape" d="M0,-18 C-9,-18 -16,-11 -16,-2 C-16,9 0,22 0,22 C0,22 16,9 16,-2 C16,-11 9,-18 0,-18 Z"/>
      <circle class="pin-core" cx="0" cy="-3" r="5"/>
      <text class="pin-label" x="0" y="36">밀포드사운드</text>
      <title>밀포드사운드 / 뉴질랜드</title>
    </g>

    <!-- Pin 29: 모아나누이 해변 -->
    <g class="pin" id="landmark-pin-samoa_30" data-landmark-id="samoa_30" data-name="모아나누이 해변" data-country="사모아" transform="translate(101.27 567.24)" tabindex="0" role="button" aria-label="모아나누이 해변">
      <path class="pin-shape" d="M0,-18 C-9,-18 -16,-11 -16,-2 C-16,9 0,22 0,22 C0,22 16,9 16,-2 C16,-11 9,-18 0,-18 Z"/>
      <circle class="pin-core" cx="0" cy="-3" r="5"/>
      <text class="pin-label" x="0" y="36">모아나누이</text>
      <title>모아나누이 해변 / 사모아</title>
    </g>

    <!-- Pin 30: 보라보라섬 -->
    <g class="pin" id="landmark-pin-borabora_30" data-landmark-id="borabora_30" data-name="보라보라섬" data-country="프랑스령 폴리네시아" transform="translate(185.01 579.63)" tabindex="0" role="button" aria-label="보라보라섬">
      <path class="pin-shape" d="M0,-18 C-9,-18 -16,-11 -16,-2 C-16,9 0,22 0,22 C0,22 16,9 16,-2 C16,-11 9,-18 0,-18 Z"/>
      <circle class="pin-core" cx="0" cy="-3" r="5"/>
      <text class="pin-label" x="0" y="36">보라보라섬</text>
      <title>보라보라섬 / 프랑스령 폴리네시아</title>
    </g>
  </g>
</svg>
