<svg xmlns="http://www.w3.org/2000/svg" class="w-full h-full" viewBox="0 0 1600 900" role="img" aria-labelledby="title desc">
  <title id="title">랜드마크 세계탐험대 실제 지도 기반 SVG</title>
  <desc id="desc">Natural Earth 저해상도 세계지도 형태를 Robinson 투영으로 표시하고, landmarks.json의 실제 위도 경도 기반으로 핀을 배치한 지도입니다. 갈라파고스, 이스터섬, 사모아, 보라보라처럼 섬 랜드마크는 바다 위 섬 위치에 있습니다.</desc>
  <style>
    .ocean { fill:#dff4ff; }
    .graticule { fill:none; stroke:#9bd4ea; stroke-width:0.8; opacity:.45; }
    .land { fill:#f4dfb4; stroke:#8a6f3e; stroke-width:1.2; }
    .island-dot { fill:#f4dfb4; stroke:#8a6f3e; stroke-width:1.1; }
    .pin { cursor:pointer; }
    .pin-shape { fill:#7b4fd6; stroke:#ffffff; stroke-width:3; filter:url(#pinShadow); transition: fill 0.3s, transform 0.3s; transform-origin: center; }
    .pin-core { fill:#ffffff; }
    .pin:hover .pin-shape, .pin:focus .pin-shape { fill:#ffb703; }
    .title { font-family:'Pretendard','Noto Sans KR',Arial,sans-serif; font-size:46px; font-weight:900; text-anchor:middle; fill:#493078; }
    .subtitle { font-family:'Pretendard','Noto Sans KR',Arial,sans-serif; font-size:19px; font-weight:700; text-anchor:middle; fill:#6a4b96; }
    .badge { fill:#fff8e8; stroke:#7b4fd6; stroke-width:3; }
    .badgeText { font-family:'Pretendard','Noto Sans KR',Arial,sans-serif; font-size:18px; font-weight:800; fill:#493078; }
    
    /* Completed Exploration Pin Styling */
    .pin.completed .pin-shape { fill: #10b981 !important; }
    .pin.completed:hover .pin-shape { fill: #34d399 !important; }
  </style>
  <defs>
    <filter id="pinShadow" x="-50%" y="-50%" width="200%" height="200%">
      <feDropShadow dx="0" dy="3" stdDeviation="3" flood-color="#000000" flood-opacity="0.22"/>
    </filter>
  </defs>
  <rect class="ocean" x="0" y="0" width="1600" height="900" rx="28"/>
  <g id="graticules"><path class="graticule" d="M 210.23 778.14 L 183.35 756.53 L 159.06 734.32 L 138.16 711.66 L 119.4 688.7 L 103.82 665.55 L 91.04 642.33 L 81.44 619.1 L 74.65 595.88 L 68.89 572.66 L 64.9 549.43 L 62.54 526.21 L 61.5 502.99 L 62.54 479.77 L 64.9 456.54 L 68.89 433.32 L 74.65 410.1 L 81.44 386.88 L 91.04 363.65 L 103.82 340.43 L 119.4 317.28 L 138.16 294.32 L 159.06 271.66 L 183.35 249.45 L 210.23 227.84 L 238.96 206.98 L 269.31 187.05 L 302.84 168.29 L 341.17 151.13" /><path class="graticule" d="M 308.53 778.14 L 286.13 756.53 L 265.88 734.32 L 248.46 711.66 L 232.83 688.7 L 219.85 665.55 L 209.2 642.33 L 201.2 619.1 L 195.54 595.88 L 190.74 572.66 L 187.42 549.43 L 185.45 526.21 L 184.58 502.99 L 185.45 479.77 L 187.42 456.54 L 190.74 433.32 L 195.54 410.1 L 201.2 386.88 L 209.2 363.65 L 219.85 340.43 L 232.83 317.28 L 248.46 294.32 L 265.88 271.66 L 286.13 249.45 L 308.53 227.84 L 332.47 206.98 L 357.76 187.05 L 385.7 168.29 L 417.64 151.13" /><path class="graticule" d="M 406.82 778.14 L 388.9 756.53 L 372.7 734.32 L 358.77 711.66 L 346.27 688.7 L 335.88 665.55 L 327.36 642.33 L 320.96 619.1 L 316.43 595.88 L 312.59 572.66 L 309.93 549.43 L 308.36 526.21 L 307.67 502.99 L 308.36 479.77 L 309.93 456.54 L 312.59 433.32 L 316.43 410.1 L 320.96 386.88 L 327.36 363.65 L 335.88 340.43 L 346.27 317.28 L 358.77 294.32 L 372.7 271.66 L 388.9 249.45 L 406.82 227.84 L 425.98 206.98 L 446.21 187.05 L 468.56 168.29 L 494.11 151.13" /><path class="graticule" d="M 505.12 778.14 L 491.68 756.53 L 479.53 734.32 L 469.08 711.66 L 459.7 688.7 L 451.91 665.55 L 445.52 642.33 L 440.72 619.1 L 437.32 595.88 L 434.44 572.66 L 432.45 549.43 L 431.27 526.21 L 430.75 502.99 L 431.27 479.77 L 432.45 456.54 L 434.44 433.32 L 437.32 410.1 L 440.72 386.88 L 445.52 363.65 L 451.91 340.43 L 459.7 317.28 L 469.08 294.32 L 479.53 271.66 L 491.68 249.45 L 505.12 227.84 L 519.48 206.98 L 534.66 187.05 L 551.42 168.29 L 570.59 151.13" /><path class="graticule" d="M 603.41 778.14 L 594.45 756.53 L 586.35 734.32 L 579.39 711.66 L 573.13 688.7 L 567.94 665.55 L 563.68 642.33 L 560.48 619.1 L 558.22 595.88 L 556.3 572.66 L 554.97 549.43 L 554.18 526.21 L 553.83 502.99 L 554.18 479.77 L 554.97 456.54 L 556.3 433.32 L 558.22 410.1 L 560.48 386.88 L 563.68 363.65 L 567.94 340.43 L 573.13 317.28 L 579.39 294.32 L 586.35 271.66 L 594.45 249.45 L 603.41 227.84 L 612.99 206.98 L 623.1 187.05 L 634.28 168.29 L 647.06 151.13" /><path class="graticule" d="M 701.71 778.14 L 697.23 756.53 L 693.18 734.32 L 689.69 711.66 L 686.57 688.7 L 683.97 665.55 L 681.84 642.33 L 680.24 619.1 L 679.11 595.88 L 678.15 572.66 L 677.48 549.43 L 677.09 526.21 L 676.92 502.99 L 677.09 479.77 L 677.48 456.54 L 678.15 433.32 L 679.11 410.1 L 680.24 386.88 L 681.84 363.65 L 683.97 340.43 L 686.57 317.28 L 689.69 294.32 L 693.18 271.66 L 697.23 249.45 L 701.71 227.84 L 706.49 206.98 L 711.55 187.05 L 717.14 168.29 L 723.53 151.13" /><path class="graticule" d="M 800 778.14 L 800 756.53 L 800 734.32 L 800 711.66 L 800 688.7 L 800 665.55 L 800 642.33 L 800 619.1 L 800 595.88 L 800 572.66 L 800 549.43 L 800 526.21 L 800 502.99 L 800 479.77 L 800 456.54 L 800 433.32 L 800 410.1 L 800 386.88 L 800 363.65 L 800 340.43 L 800 317.28 L 800 294.32 L 800 271.66 L 800 249.45 L 800 227.84 L 800 206.98 L 800 187.05 L 800 168.29 L 800 151.13" /><path class="graticule" d="M 898.29 778.14 L 902.77 756.53 L 906.82 734.32 L 910.31 711.66 L 913.43 688.7 L 916.03 665.55 L 918.16 642.33 L 919.76 619.1 L 920.89 595.88 L 921.85 572.66 L 922.52 549.43 L 922.91 526.21 L 923.08 502.99 L 922.91 479.77 L 922.52 456.54 L 921.85 433.32 L 920.89 410.1 L 919.76 386.88 L 918.16 363.65 L 916.03 340.43 L 913.43 317.28 L 910.31 294.32 L 906.82 271.66 L 902.77 249.45 L 898.29 227.84 L 893.51 206.98 L 888.45 187.05 L 882.86 168.29 L 876.47 151.13" /><path class="graticule" d="M 996.59 778.14 L 1005.55 756.53 L 1013.65 734.32 L 1020.61 711.66 L 1026.87 688.7 L 1032.06 665.55 L 1036.32 642.33 L 1039.52 619.1 L 1041.78 595.88 L 1043.7 572.66 L 1045.03 549.43 L 1045.82 526.21 L 1046.17 502.99 L 1045.82 479.77 L 1045.03 456.54 L 1043.7 433.32 L 1041.78 410.1 L 1039.52 386.88 L 1036.32 363.65 L 1032.06 340.43 L 1026.87 317.28 L 1020.61 294.32 L 1013.65 271.66 L 1005.55 249.45 L 996.59 227.84 L 987.01 206.98 L 976.9 187.05 L 965.72 168.29 L 952.94 151.13" /><path class="graticule" d="M 1094.88 778.14 L 1108.32 756.53 L 1120.47 734.32 L 1130.92 711.66 L 1140.3 688.7 L 1148.09 665.55 L 1154.48 642.33 L 1159.28 619.1 L 1162.68 595.88 L 1165.56 572.66 L 1167.55 549.43 L 1168.73 526.21 L 1169.25 502.99 L 1168.73 479.77 L 1167.55 456.54 L 1165.56 433.32 L 1162.68 410.1 L 1159.28 386.88 L 1154.48 363.65 L 1148.09 340.43 L 1140.3 317.28 L 1130.92 294.32 L 1120.47 271.66 L 1108.32 249.45 L 1094.88 227.84 L 1080.52 206.98 L 1065.34 187.05 L 1048.58 168.29 L 1029.41 151.13" /><path class="graticule" d="M 1193.18 778.14 L 1211.1 756.53 L 1227.3 734.32 L 1241.23 711.66 L 1253.73 688.7 L 1264.12 665.55 L 1272.64 642.33 L 1279.04 619.1 L 1283.57 595.88 L 1287.41 572.66 L 1290.07 549.43 L 1291.64 526.21 L 1292.33 502.99 L 1291.64 479.77 L 1290.07 456.54 L 1287.41 433.32 L 1283.57 410.1 L 1279.04 386.88 L 1272.64 363.65 L 1264.12 340.43 L 1253.73 317.28 L 1241.23 294.32 L 1227.3 271.66 L 1211.1 249.45 L 1193.18 227.84 L 1174.02 206.98 L 1153.79 187.05 L 1131.44 168.29 L 1105.89 151.13" /><path class="graticule" d="M 1291.47 778.14 L 1313.87 756.53 L 1334.12 734.32 L 1351.54 711.66 L 1367.17 688.7 L 1380.15 665.55 L 1390.8 642.33 L 1398.8 619.1 L 1404.46 595.88 L 1409.26 572.66 L 1412.58 549.43 L 1414.55 526.21 L 1415.42 502.99 L 1414.55 479.77 L 1412.58 456.54 L 1409.26 433.32 L 1404.46 410.1 L 1398.8 386.88 L 1390.8 363.65 L 1380.15 340.43 L 1367.17 317.28 L 1351.54 294.32 L 1334.12 271.66 L 1313.87 249.45 L 1291.47 227.84 L 1267.53 206.98 L 1242.24 187.05 L 1214.3 168.29 L 1182.36 151.13" /><path class="graticule" d="M 1389.77 778.14 L 1416.65 756.53 L 1440.94 734.32 L 1461.84 711.66 L 1480.6 688.7 L 1496.18 665.55 L 1508.96 642.33 L 1518.56 619.1 L 1525.35 595.88 L 1531.11 572.66 L 1535.1 549.43 L 1537.46 526.21 L 1538.5 502.99 L 1537.46 479.77 L 1535.1 456.54 L 1531.11 433.32 L 1525.35 410.1 L 1518.56 386.88 L 1508.96 363.65 L 1496.18 340.43 L 1480.6 317.28 L 1461.84 294.32 L 1440.94 271.66 L 1416.65 249.45 L 1389.77 227.84 L 1361.04 206.98 L 1330.69 187.05 L 1297.16 168.29 L 1258.83 151.13" /><path class="graticule" d="M 210.23 778.14 L 226.62 778.14 L 243 778.14 L 259.38 778.14 L 275.76 778.14 L 292.15 778.14 L 308.53 778.14 L 324.91 778.14 L 341.29 778.14 L 357.68 778.14 L 374.06 778.14 L 390.44 778.14 L 406.82 778.14 L 423.21 778.14 L 439.59 778.14 L 455.97 778.14 L 472.35 778.14 L 488.74 778.14 L 505.12 778.14 L 521.5 778.14 L 537.88 778.14 L 554.26 778.14 L 570.65 778.14 L 587.03 778.14 L 603.41 778.14 L 619.79 778.14 L 636.18 778.14 L 652.56 778.14 L 668.94 778.14 L 685.32 778.14 L 701.71 778.14 L 718.09 778.14 L 734.47 778.14 L 750.85 778.14 L 767.24 778.14 L 783.62 778.14 L 800 778.14 L 816.38 778.14 L 832.76 778.14 L 849.15 778.14 L 865.53 778.14 L 881.91 778.14 L 898.29 778.14 L 914.68 778.14 L 931.06 778.14 L 947.44 778.14 L 963.82 778.14 L 980.21 778.14 L 996.59 778.14 L 1012.97 778.14 L 1029.35 778.14 L 1045.74 778.14 L 1062.12 778.14 L 1078.5 778.14 L 1094.88 778.14 L 1111.26 778.14 L 1127.65 778.14 L 1144.03 778.14 L 1160.41 778.14 L 1176.79 778.14 L 1193.18 778.14 L 1209.56 778.14 L 1225.94 778.14 L 1242.32 778.14 L 1258.71 778.14 L 1275.09 778.14 L 1291.47 778.14 L 1307.85 778.14 L 1324.24 778.14 L 1340.62 778.14 L 1357 778.14 L 1373.38 778.14 L 1389.77 778.14" /><path class="graticule" d="M 91.04 642.33 L 110.73 642.33 L 130.43 642.33 L 150.12 642.33 L 169.81 642.33 L 189.51 642.33 L 209.2 642.33 L 228.89 642.33 L 248.59 642.33 L 268.28 642.33 L 287.97 642.33 L 307.67 642.33 L 327.36 642.33 L 347.05 642.33 L 366.75 642.33 L 386.44 642.33 L 406.13 642.33 L 425.83 642.33 L 445.52 642.33 L 465.21 642.33 L 484.91 642.33 L 504.6 642.33 L 524.29 642.33 L 543.99 642.33 L 563.68 642.33 L 583.37 642.33 L 603.07 642.33 L 622.76 642.33 L 642.45 642.33 L 662.15 642.33 L 681.84 642.33 L 701.53 642.33 L 721.23 642.33 L 740.92 642.33 L 760.61 642.33 L 780.31 642.33 L 800 642.33 L 819.69 642.33 L 839.39 642.33 L 859.08 642.33 L 878.77 642.33 L 898.47 642.33 L 918.16 642.33 L 937.85 642.33 L 957.55 642.33 L 977.24 642.33 L 996.93 642.33 L 1016.63 642.33 L 1036.32 642.33 L 1056.01 642.33 L 1075.71 642.33 L 1095.4 642.33 L 1115.09 642.33 L 1134.79 642.33 L 1154.48 642.33 L 1174.17 642.33 L 1193.87 642.33 L 1213.56 642.33 L 1233.25 642.33 L 1252.95 642.33 L 1272.64 642.33 L 1292.33 642.33 L 1312.03 642.33 L 1331.72 642.33 L 1351.41 642.33 L 1371.11 642.33 L 1390.8 642.33 L 1410.49 642.33 L 1430.19 642.33 L 1449.88 642.33 L 1469.57 642.33 L 1489.27 642.33 L 1508.96 642.33" /><path class="graticule" d="M 61.5 502.99 L 82.02 502.99 L 102.53 502.99 L 123.04 502.99 L 143.56 502.99 L 164.07 502.99 L 184.58 502.99 L 205.1 502.99 L 225.61 502.99 L 246.13 502.99 L 266.64 502.99 L 287.15 502.99 L 307.67 502.99 L 328.18 502.99 L 348.7 502.99 L 369.21 502.99 L 389.72 502.99 L 410.24 502.99 L 430.75 502.99 L 451.26 502.99 L 471.78 502.99 L 492.29 502.99 L 512.81 502.99 L 533.32 502.99 L 553.83 502.99 L 574.35 502.99 L 594.86 502.99 L 615.38 502.99 L 635.89 502.99 L 656.4 502.99 L 676.92 502.99 L 697.43 502.99 L 717.94 502.99 L 738.46 502.99 L 758.97 502.99 L 779.49 502.99 L 800 502.99 L 820.51 502.99 L 841.03 502.99 L 861.54 502.99 L 882.06 502.99 L 902.57 502.99 L 923.08 502.99 L 943.6 502.99 L 964.11 502.99 L 984.62 502.99 L 1005.14 502.99 L 1025.65 502.99 L 1046.17 502.99 L 1066.68 502.99 L 1087.19 502.99 L 1107.71 502.99 L 1128.22 502.99 L 1148.74 502.99 L 1169.25 502.99 L 1189.76 502.99 L 1210.28 502.99 L 1230.79 502.99 L 1251.3 502.99 L 1271.82 502.99 L 1292.33 502.99 L 1312.85 502.99 L 1333.36 502.99 L 1353.87 502.99 L 1374.39 502.99 L 1394.9 502.99 L 1415.42 502.99 L 1435.93 502.99 L 1456.44 502.99 L 1476.96 502.99 L 1497.47 502.99 L 1517.98 502.99 L 1538.5 502.99" /><path class="graticule" d="M 91.04 363.65 L 110.73 363.65 L 130.43 363.65 L 150.12 363.65 L 169.81 363.65 L 189.51 363.65 L 209.2 363.65 L 228.89 363.65 L 248.59 363.65 L 268.28 363.65 L 287.97 363.65 L 307.67 363.65 L 327.36 363.65 L 347.05 363.65 L 366.75 363.65 L 386.44 363.65 L 406.13 363.65 L 425.83 363.65 L 445.52 363.65 L 465.21 363.65 L 484.91 363.65 L 504.6 363.65 L 524.29 363.65 L 543.99 363.65 L 563.68 363.65 L 583.37 363.65 L 603.07 363.65 L 622.76 363.65 L 642.45 363.65 L 662.15 363.65 L 681.84 363.65 L 701.53 363.65 L 721.23 363.65 L 740.92 363.65 L 760.61 363.65 L 780.31 363.65 L 800 363.65 L 819.69 363.65 L 839.39 363.65 L 859.08 363.65 L 878.77 363.65 L 898.47 363.65 L 918.16 363.65 L 937.85 363.65 L 957.55 363.65 L 977.24 363.65 L 996.93 363.65 L 1016.63 363.65 L 1036.32 363.65 L 1056.01 363.65 L 1075.71 363.65 L 1095.4 363.65 L 1115.09 363.65 L 1134.79 363.65 L 1154.48 363.65 L 1174.17 363.65 L 1193.87 363.65 L 1213.56 363.65 L 1233.25 363.65 L 1252.95 363.65 L 1272.64 363.65 L 1292.33 363.65 L 1312.03 363.65 L 1331.72 363.65 L 1351.41 363.65 L 1371.11 363.65 L 1390.8 363.65 L 1410.49 363.65 L 1430.19 363.65 L 1449.88 363.65 L 1469.57 363.65 L 1489.27 363.65 L 1508.96 363.65" /><path class="graticule" d="M 210.23 227.84 L 226.62 227.84 L 243 227.84 L 259.38 227.84 L 275.76 227.84 L 292.15 227.84 L 308.53 227.84 L 324.91 227.84 L 341.29 227.84 L 357.68 227.84 L 374.06 227.84 L 390.44 227.84 L 406.82 227.84 L 423.21 227.84 L 439.59 227.84 L 455.97 227.84 L 472.35 227.84 L 488.74 227.84 L 505.12 227.84 L 521.5 227.84 L 537.88 227.84 L 554.26 227.84 L 570.65 227.84 L 587.03 227.84 L 603.41 227.84 L 619.79 227.84 L 636.18 227.84 L 652.56 227.84 L 668.94 227.84 L 685.32 227.84 L 701.71 227.84 L 718.09 227.84 L 734.47 227.84 L 750.85 227.84 L 767.24 227.84 L 783.62 227.84 L 800 227.84 L 816.38 227.84 L 832.76 227.84 L 849.15 227.84 L 865.53 227.84 L 881.91 227.84 L 898.29 227.84 L 914.68 227.84 L 931.06 227.84 L 947.44 227.84 L 963.82 227.84 L 980.21 227.84 L 996.59 227.84 L 1012.97 227.84 L 1029.35 227.84 L 1045.74 227.84 L 1062.12 227.84 L 1078.5 227.84 L 1094.88 227.84 L 1111.26 227.84 L 1127.65 227.84 L 1144.03 227.84 L 1160.41 227.84 L 1176.79 227.84 L 1193.18 227.84 L 1209.56 227.84 L 1225.94 227.84 L 1242.32 227.84 L 1258.71 227.84 L 1275.09 227.84 L 1291.47 227.84 L 1307.85 227.84 L 1324.24 227.84 L 1340.62 227.84 L 1357 227.84 L 1373.38 227.84 L 1389.77 227.84" /></g>
  <g id="landmasses" data-source="Natural Earth low resolution via pyogrio test fixture" data-projection="Robinson ESRI:54030">
<path class="land" d="M1530 577.61 L1529.46 579.88 L1523.78 582 L1523.68 580.27 L1530 577.61 Z M1519.09 583.72 L1523.04 584.87 L1521.76 587.29 L1517.01 587.35 L1519.09 583.72 Z M70 577.61 L70.81 579.63 L70.54 579.88 L70 577.61 Z" />
    <path class="land" d="M939.09 507.4 L954.58 517.37 L954.82 520.07 L960.64 524.71 L958.65 530.43 L958.84 533.07 L961.43 534.76 L960.22 542.4 L964.6 550.91 L961.27 553.6 L948.88 557.43 L940.95 556.49 L937.85 546.73 L925.7 541.72 L921.26 533.27 L920.23 523.89 L926.08 518.59 L924.96 514.2 L926.41 510.88 L924.79 508.26 L939.09 507.4 Z" />
    <path class="land" d="M765.63 374.54 L765.39 382.79 L752.32 382.54 L752.19 394.43 L748.42 394.84 L748.02 403.94 L732.27 403.91 L731.36 405.46 L731.58 403.49 L740.71 403.13 L744.39 392.96 L750.07 387.94 L752.09 382.09 L754.73 378.13 L765.07 377.03 L765.63 374.54 Z" />
    <path class="land" d="M573.08 146.42 L608.11 142.03 L649.11 143.38 L631.82 146.57 L637.24 146.55 L617.95 151.76 L601.72 153.29 L604.87 153.7 L602.49 154.29 L603.03 155.92 L586.69 161.2 L591.4 161.07 L590.64 161.92 L581.41 164.04 L558.3 163 L559.79 161.31 L565.59 160.52 L567.02 158.03 L574.36 159.27 L573.14 157.08 L569.6 156.44 L580.7 153.22 L578.51 151.97 L579.34 150.34 L592.98 149.68 L578.63 149.52 L575.44 148.49 L573.08 146.42 Z M567.87 179.17 L578.25 176.58 L585.82 180.28 L585.03 181.94 L591 181.08 L592.39 183.51 L598.47 185.02 L600.67 190.22 L594.1 192.05 L603.97 195.5 L606.36 199.17 L611.02 199.43 L600.77 206.98 L595.09 201.34 L590.84 201.85 L589.16 204.17 L595.09 209.51 L595.06 213.59 L592.46 216.58 L582.8 212.13 L587.22 219.69 L573.82 215.59 L571.09 213.57 L572.85 212.4 L565.97 208.29 L555.83 210.14 L555.05 208.73 L557.99 205.71 L570.58 205.12 L572.72 201.65 L579.06 197.74 L578.99 194.62 L570.43 191.36 L573.01 190.37 L571.52 187.94 L567.68 186.4 L559.56 188.05 L549.46 187.18 L538.49 184.11 L542.98 182.37 L538.87 182.35 L541.26 178.51 L550.73 173.65 L558.89 172.66 L554.68 175.06 L554.92 177.39 L560.12 174.38 L568.58 172.86 L570.25 176.7 L567.87 179.17 Z M604.97 264.55 L597.5 272.51 L600.3 270.99 L602.39 271.95 L600.66 273.52 L608.59 275.04 L606.54 278.35 L609.27 277.57 L609.42 282.79 L606.83 286.78 L602.97 286.09 L603.93 281.8 L598.63 285.74 L596.5 285.58 L599.67 283.45 L596.5 282.35 L585.56 282.48 L588.14 279.54 L586.96 278.32 L596.8 268.44 L604.97 264.55 Z M359.58 276.16 L353.99 269.79 L348.91 267.94 L352.5 261.25 L349.51 259.36 L351.77 255.79 L350.23 252.58 L358.06 245.44 L354.73 242.67 L356.57 234.64 L355.23 228.74 L345.01 232.51 L344.44 227.84 L339.37 226.54 L382.92 188.17 L392.35 191.35 L418.21 186.3 L418.36 187.91 L424.39 185.18 L426.97 189.07 L433.85 186.44 L430.97 189.38 L441.01 187.83 L449.25 190.9 L455.86 191.32 L457.91 193.31 L451.74 195.28 L456.38 196.13 L468.22 194.97 L469.23 197.35 L474.38 195.34 L472.86 193.66 L476.06 192.31 L482.64 191.73 L485.27 194.82 L492.7 196.3 L502.27 195.76 L504 193.29 L507.25 192.6 L510.78 193.94 L507.69 197.71 L519.14 190.68 L515.88 186.7 L519.88 182.46 L525.81 179.7 L530.5 181.98 L530.79 186.31 L526.6 188.21 L531.46 189 L528.27 193.01 L534.68 189.94 L536.28 192.46 L533.16 195.39 L534.1 198.08 L544.1 191.79 L547.51 187.51 L555.42 188.38 L558 190.31 L553.08 194.37 L553.73 196.49 L552.02 198.44 L544.11 201.25 L537.08 200.65 L527.18 207.89 L513.18 212.69 L511.08 215.39 L507 215.91 L493.86 224.03 L486.71 232.33 L491.09 233.04 L489.43 240.35 L494.67 239.49 L509.5 248.13 L518.5 248.8 L514.67 257.05 L514.71 262.01 L517.91 266.25 L525.37 260.22 L527 253.23 L525.76 250.91 L532.31 248.85 L541.19 242.75 L542.12 236.18 L539.86 232.94 L546.26 228.47 L549.78 218.06 L563.74 217.54 L568.68 223.02 L574.29 223.34 L570.76 232.29 L573.45 232.96 L574.64 235.49 L580.58 233.1 L589.07 226.41 L593.19 240.87 L590.69 243.6 L596.27 248.56 L602.98 251.09 L602.98 254.82 L606.27 257.07 L604.82 262.06 L586.6 270.57 L563.95 270.63 L541.45 286.03 L552.72 279.33 L561.6 275.56 L567.12 275.11 L569.53 277.33 L565.1 280.36 L564.71 288.68 L568.75 290.95 L575 290.29 L580.2 285.18 L579.46 288.48 L581.33 290.13 L575.92 293.11 L557.59 300.98 L554.88 300.64 L555.95 296.77 L563.53 292.99 L553.35 293.7 L551.79 291.12 L553.87 284.91 L549.23 283.18 L537.1 294.29 L524.72 294.32 L515.25 300.6 L508.2 300.61 L506.25 301.34 L506.1 304.1 L491.03 309.57 L488.91 308.18 L495.43 300.86 L497.1 292.74 L494.15 290.6 L493.45 287.43 L491.62 287.76 L491.52 285.67 L481.66 279.31 L469.56 280.05 L461.05 277.65 L460.94 274.41 L458.82 276.16 L359.58 276.16 Z M572.85 176.38 L571.34 174.41 L574.13 172.83 L580.24 173.23 L583.5 175.26 L572.85 176.38 Z M554.39 170.5 L544.13 168.87 L546.81 165.1 L545.8 163.54 L538.84 162.02 L546.79 160.8 L553.78 161.92 L554.83 163.08 L552.77 164.42 L555.89 166.08 L574.1 165.45 L579.98 167.06 L579.25 168.56 L571.83 170.32 L554.39 170.5 Z M557.71 149.26 L569.35 147.29 L570.5 148.89 L577.37 150.13 L576.91 152.21 L578.81 153.25 L566.47 156.72 L556.62 156.53 L555.46 155.17 L560.09 153.11 L553.88 152.07 L557.71 149.26 Z M570.06 272.23 L575.72 272.98 L578.56 275.69 L572.63 274.36 L570.06 272.23 Z M567.54 285.05 L568.11 287.26 L573.98 287.75 L570.17 289.91 L566.14 287.98 L567.54 285.05 Z M573.4 194.85 L568.93 198.28 L565.39 198.48 L568.64 194.3 L573.4 194.85 Z M550.43 158.31 L549.43 159.44 L544.71 159.22 L550.43 158.31 Z M543.79 154.77 L549.9 156.28 L547.69 157.5 L541.76 157.41 L543.79 154.77 Z M535.75 206.09 L544.08 209.21 L543.1 211.17 L547 212.21 L543.38 213.51 L539.09 212.52 L538.53 210.66 L528.03 215 L528.56 212.58 L524 212.98 L528.13 210.93 L534.4 203.97 L536.4 204.3 L535.75 206.09 Z M535.73 171.45 L545.92 172.47 L528.88 179.31 L525.73 179.17 L528.91 174.02 L535.73 171.45 Z M542.11 219.04 L544.11 217.78 L545.66 218.73 L543.08 220.94 L542.11 219.04 Z M541.37 168.36 L538.4 169.77 L532.3 168.55 L540.54 165.95 L541.37 168.36 Z M531.28 217.5 L534.89 215.58 L539.24 215.62 L533.46 218.73 L531.28 217.5 Z M527.93 153.36 L537.78 155.01 L537.71 156.59 L536.93 158.01 L524.55 156.41 L528.42 155.42 L526.37 154.62 L527.93 153.36 Z M535 162.13 L535.14 163.77 L528.88 168.29 L523.92 168.66 L521.6 168.08 L524.06 165.97 L519.25 166.25 L522.39 163.48 L535 162.13 Z M513.66 176.74 L513.02 174.31 L518.23 172.52 L526.27 172.83 L521.5 175.68 L524.25 177.29 L520.55 180.69 L511.94 181.84 L507.03 177.48 L513.66 176.74 Z M510.92 186.49 L515.05 190.53 L512.03 191.9 L503.69 189.38 L510.92 186.49 Z M510.26 154.84 L513.86 155.67 L505.4 156.32 L510.26 154.84 Z M505.95 165.23 L511.79 164.79 L506.39 168.27 L487.42 170.41 L483.09 170.49 L491.96 167.7 L475.95 167.48 L488.34 162.98 L500.87 166.57 L501.36 163.15 L507.77 162.27 L505.95 165.23 Z M499.48 158.61 L510.48 157.71 L501.85 159.72 L499.48 158.61 Z M498.16 173.94 L503.63 173.27 L504.89 174.08 L499.78 176.54 L498.16 173.94 Z M497.79 175.36 L499.37 176.87 L495.67 183.23 L502.37 186.96 L500.5 188.66 L495.35 188.98 L495.89 190.48 L493.59 191.92 L484.59 190.24 L460.19 192.77 L460.41 190.92 L454.33 190.29 L453.89 187.21 L470.01 185.63 L454.62 184.96 L454.62 183.55 L463.05 182.02 L454.57 181.07 L463.97 176.74 L474.24 174.48 L476.3 175.19 L472.87 176.94 L480.49 175.81 L482.35 177.7 L487.67 175.79 L488.94 177.02 L487.37 180.72 L490.45 179.15 L492.53 175.31 L497.79 175.36 Z M466.34 164.26 L483.61 159.36 L491.99 158.91 L484 162.8 L466.34 164.26 Z M451.45 170.87 L471.5 171.26 L474.04 173.88 L459.29 177.44 L450.75 181.74 L441 183.58 L441.4 181.9 L437.11 179.9 L451.23 173.12 L451.45 170.87 Z M355.72 278.38 L348.95 276.95 L347.09 272.49 L343.99 271.69 L344.38 269.24 L345.45 268.21 L353.14 270.34 L355.72 278.38 Z M340.61 253.1 L345.36 253.32 L340.15 258.34 L340.32 261.91 L338.93 261.9 L338.22 256.45 L340.61 253.1 Z" />
    <path class="land" d="M359.58 276.16 L458.82 276.16 L460.94 274.41 L461.05 277.65 L469.56 280.05 L481.66 279.31 L491.52 285.67 L491.62 287.76 L493.45 287.43 L494.15 290.6 L497.1 292.74 L495.43 300.86 L488.91 308.18 L490.09 309.57 L506.1 304.1 L506.25 301.34 L508.2 300.61 L515.25 300.6 L524.72 294.32 L537.1 294.29 L549.23 283.18 L553.87 284.91 L551.79 291.12 L553.5 295.19 L540.18 300.34 L535.52 306.53 L535.98 308.97 L537.5 309.08 L537.64 307.4 L538.44 308.43 L537.73 309.74 L522.64 312.99 L529.28 313 L521.46 313.82 L515.28 322.18 L513.7 319.6 L513.98 324.66 L509.04 330.15 L510.82 326.82 L509.38 325.05 L510.09 321.21 L508.7 326.14 L506.39 325.42 L508.58 326.91 L507.77 337.88 L504.42 341.32 L492.4 347.42 L481.17 356.96 L479.77 363.49 L481.85 378.15 L479.27 385.92 L476.11 385.94 L474.46 382.84 L471.61 373.47 L473.03 370.39 L470.23 363.95 L464.4 365.34 L460.14 361.8 L447.3 362.91 L446.93 367.56 L441.11 367.61 L438.75 365.15 L432.56 364.66 L426.44 366.07 L414.93 373.73 L412.99 382.84 L411.41 382.98 L405.98 380.51 L401.59 366.53 L396.06 364.77 L392.6 368.44 L389.69 367.05 L382.96 355.5 L376.18 355.5 L375.56 357.42 L364.64 357.45 L351.67 351.92 L352.36 351.01 L342.66 351.88 L342.86 349.5 L339.82 344.94 L332.73 342.25 L331.8 327.53 L331.06 322.13 L330.39 315.84 L336.09 304.55 L345.87 291.94 L350.53 279.85 L355.76 280.5 L355.01 284.78 L359.58 276.16 Z M382.92 188.17 L339.37 226.54 L344.44 227.84 L345.01 232.51 L355.23 228.74 L356.57 234.64 L354.73 242.67 L358.06 245.44 L352.07 250.32 L349.8 247.27 L352.19 243.46 L351.02 239.95 L353 235.87 L344.86 235.49 L342.16 234.25 L339.73 229.81 L333.23 227.48 L328.32 227.84 L322.04 224.09 L317.45 224.98 L314.92 227.93 L298.96 231.44 L312.54 222.4 L292.27 230.61 L292.41 232.69 L285.91 235.77 L261.79 245.1 L232.68 252.07 L271.55 238.26 L280.23 232.45 L271.16 234.58 L271.46 232.4 L268.82 233.94 L270.01 231.8 L262.71 233.51 L267.79 229.4 L267.46 227.88 L262.23 228.7 L260.86 225.69 L263.77 223.29 L263.5 221.49 L267.77 219.08 L277.18 214.61 L292.43 212.05 L293.42 209.42 L297.76 207.84 L282.86 209.24 L279.57 208.26 L279.72 204.25 L295.91 200.58 L298.43 200.58 L295.3 202.6 L302.01 202.44 L301.25 194.72 L298.9 193.47 L303.56 191.41 L345.88 181.83 L349.11 182.64 L348.73 184.36 L355.69 183.85 L354.28 184.73 L382.92 188.17 Z M288.44 236.54 L290.35 238.17 L280.18 241.88 L281.27 238.73 L288.44 236.54 Z M257.92 211.98 L261.36 212.34 L264.89 213.99 L260.47 215.32 L259.03 213.66 L255.91 213.9 L257.92 211.98 Z M252.44 226.93 L258.68 226.59 L254.21 228.88 L252.44 226.93 Z M172.21 408.86 L175.64 412.38 L171.46 415.13 L170.75 411.48 L172.21 408.86 Z M172.2 406.55 L170.31 407.44 L169.5 405.79 L169.99 405.4 L172.2 406.55 Z M167.65 404.43 L169.34 405.14 L167.22 405 L167.65 404.43 Z M165.09 402.12 L166.15 403.96 L165.86 404.23 L164.23 404 L165.09 402.12 Z M159.38 399.71 L159.5 401.35 L158.36 400.51 L159.38 399.71 Z" />
    <path class="land" d="M1112.76 275.19 L1111.42 278.2 L1108.63 278.62 L1110.46 283.16 L1109.33 285.21 L1101.5 283.72 L1102.21 291.86 L1094.17 294.7 L1100.53 302.65 L1098.42 303.85 L1099.68 306.46 L1094.67 304.14 L1081.58 304.04 L1075.62 302.11 L1073.83 303.06 L1074.17 305.77 L1065.27 304.84 L1065.09 306.85 L1057.22 314.23 L1055.54 312.05 L1050.72 311.9 L1048.84 308.13 L1047.01 308.1 L1045.9 303.49 L1040.43 300.14 L1030.03 301.17 L1014.35 291.65 L1005.65 294.34 L1010.18 311.25 L1008.31 311.48 L1001.96 306.58 L996.66 309.07 L995.55 304.43 L990.86 302.87 L985.4 296.11 L989.09 296.54 L988.41 293.2 L994.72 293.14 L992.84 285.88 L985.88 284.99 L979.01 287.95 L976.98 287.21 L973.73 281.84 L971.08 281.97 L967.27 278.9 L968.49 275.48 L967.22 274.56 L968.77 269.62 L973.13 272.23 L972.67 268.95 L978.56 264.09 L984.01 263.97 L997.52 268.87 L1000.67 266.98 L1006.24 266.9 L1011.55 269.22 L1012.13 267.89 L1017.17 268.08 L1017.3 265.96 L1010.49 262.89 L1013.06 260.72 L1011.96 259.51 L1014.87 258.36 L1011.2 255.33 L1012.2 253.82 L1024.49 252.29 L1035.85 247.76 L1042.43 248.71 L1045.6 253.26 L1048.71 252.19 L1053.84 253.69 L1054.67 256.1 L1064.53 251.69 L1063.95 253.07 L1083.23 267.79 L1084.02 265.44 L1090.1 268.02 L1094.64 266.87 L1105.25 273.04 L1109.56 272.44 L1112.76 275.19 Z" />
    <path class="land" d="M1010.18 311.25 L1005.65 294.34 L1014.35 291.65 L1030.03 301.17 L1040.43 300.14 L1045.9 303.49 L1047.01 308.1 L1048.84 308.13 L1050.72 311.9 L1055.54 312.05 L1057.22 314.23 L1065.09 306.85 L1066.35 307.3 L1064.15 310.28 L1074.99 313.29 L1071.19 316.61 L1066.65 316.28 L1065.87 312.86 L1061.16 313.93 L1059.75 319.44 L1056.53 319.22 L1056.1 321.25 L1059.18 322.36 L1060.92 325.8 L1059.97 330.49 L1054.7 329.48 L1054.09 326.64 L1043.97 322.4 L1035.78 317.04 L1032.67 312.28 L1027.18 311.66 L1024.1 307.05 L1018.42 304.62 L1013.2 308.87 L1014.4 311.19 L1010.18 311.25 Z" />
    <path class="land" d="M1433.6 526.41 L1438.7 533.36 L1438.03 534.67 L1435.21 533.35 L1433.6 526.41 Z M1425.74 519.99 L1427.57 523.89 L1426.21 525.13 L1424.75 520.59 L1417.84 515.72 L1419.03 514.6 L1425.74 519.99 Z M1458.7 550.39 L1462.74 553.27 L1459.89 553.24 L1458.7 550.39 Z" />
  </g>
  <g id="tiny-island-reference-dots">
    <circle class="island-dot" cx="426.81" cy="515.42" r="8"><title>갈라파고스 제도 실제 섬 위치</title></circle><circle class="island-dot" cx="365.64" cy="636.95" r="8"><title>이스터섬 실제 섬 위치</title></circle><circle class="island-dot" cx="101.27" cy="575.24" r="8"><title>사모아 실제 섬 위치</title></circle><circle class="island-dot" cx="185.01" cy="587.63" r="8"><title>보라보라 실제 섬 위치</title></circle>
  </g>
  <text class="title" x="800" y="62">랜드마크 세계탐험대</text>
  <text class="subtitle" x="800" y="94">실제 위도·경도 기반 핀 배치 · 무료 지도 API 없이 사용</text>
  <rect class="badge" x="1215" y="35" width="310" height="74" rx="18"/>
  <text class="badgeText" x="1240" y="65">탐험한 랜드마크</text>
  <text class="badgeText" x="1240" y="92">★ 0 / 30</text>
  <g id="landmark-pins">
    <g class="pin" id="landmark-1" data-landmark-id="gyeongbokgung" data-name="경복궁" data-country="대한민국" transform="translate(1285.71 328.47)" tabindex="0" role="button" aria-label="경복궁">
      <path class="pin-shape" d="M0,-18 C-9,-18 -16,-11 -16,-2 C-16,9 0,22 0,22 C0,22 16,9 16,-2 C16,-11 9,-18 0,-18 Z"/>
      <circle class="pin-core" cx="0" cy="-3" r="5"/>
      <title>경복궁 / 대한민국</title>
    </g><g class="pin" id="landmark-2" data-landmark-id="greatwall_30" data-name="만리장성" data-country="중국" transform="translate(1239.79 315.29)" tabindex="0" role="button" aria-label="만리장성">
      <path class="pin-shape" d="M0,-18 C-9,-18 -16,-11 -16,-2 C-16,9 0,22 0,22 C0,22 16,9 16,-2 C16,-11 9,-18 0,-18 Z"/>
      <circle class="pin-core" cx="0" cy="-3" r="5"/>
      <title>만리장성 / 중국</title>
    </g><g class="pin" id="landmark-3" data-landmark-id="tajmahal_30" data-name="타지마할" data-country="인도" transform="translate(1109.91 376.78)" tabindex="0" role="button" aria-label="타지마할">
      <path class="pin-shape" d="M0,-18 C-9,-18 -16,-11 -16,-2 C-16,9 0,22 0,22 C0,22 16,9 16,-2 C16,-11 9,-18 0,-18 Z"/>
      <circle class="pin-core" cx="0" cy="-3" r="5"/>
      <title>타지마할 / 인도</title>
    </g><g class="pin" id="landmark-4" data-landmark-id="fuji_30" data-name="후지산" data-country="일본" transform="translate(1335.76 338.76)" tabindex="0" role="button" aria-label="후지산">
      <path class="pin-shape" d="M0,-18 C-9,-18 -16,-11 -16,-2 C-16,9 0,22 0,22 C0,22 16,9 16,-2 C16,-11 9,-18 0,-18 Z"/>
      <circle class="pin-core" cx="0" cy="-3" r="5"/>
      <title>후지산 / 일본</title>
    </g><g class="pin" id="landmark-5" data-landmark-id="angkorwat_30" data-name="앙코르와트" data-country="캄보디아" transform="translate(1222.73 440.7)" tabindex="0" role="button" aria-label="앙코르와트">
      <path class="pin-shape" d="M0,-18 C-9,-18 -16,-11 -16,-2 C-16,9 0,22 0,22 C0,22 16,9 16,-2 C16,-11 9,-18 0,-18 Z"/>
      <circle class="pin-core" cx="0" cy="-3" r="5"/>
      <title>앙코르와트 / 캄보디아</title>
    </g><g class="pin" id="landmark-6" data-landmark-id="eiffel_30" data-name="에펠탑" data-country="프랑스" transform="translate(808.23 276.8)" tabindex="0" role="button" aria-label="에펠탑">
      <path class="pin-shape" d="M0,-18 C-9,-18 -16,-11 -16,-2 C-16,9 0,22 0,22 C0,22 16,9 16,-2 C16,-11 9,-18 0,-18 Z"/>
      <circle class="pin-core" cx="0" cy="-3" r="5"/>
      <title>에펠탑 / 프랑스</title>
    </g><g class="pin" id="landmark-7" data-landmark-id="colosseum_30" data-name="콜로세움" data-country="이탈리아" transform="translate(846.76 308.58)" tabindex="0" role="button" aria-label="콜로세움">
      <path class="pin-shape" d="M0,-18 C-9,-18 -16,-11 -16,-2 C-16,9 0,22 0,22 C0,22 16,9 16,-2 C16,-11 9,-18 0,-18 Z"/>
      <circle class="pin-core" cx="0" cy="-3" r="5"/>
      <title>콜로세움 / 이탈리아</title>
    </g><g class="pin" id="landmark-8" data-landmark-id="bigben_30" data-name="빅벤" data-country="영국" transform="translate(799.56 264.94)" tabindex="0" role="button" aria-label="빅벤">
      <path class="pin-shape" d="M0,-18 C-9,-18 -16,-11 -16,-2 C-16,9 0,22 0,22 C0,22 16,9 16,-2 C16,-11 9,-18 0,-18 Z"/>
      <circle class="pin-core" cx="0" cy="-3" r="5"/>
      <title>빅벤 / 영국</title>
    </g><g class="pin" id="landmark-9" data-landmark-id="sagrada_30" data-name="사그라다 파밀리아" data-country="스페인" transform="translate(808.16 310.82)" tabindex="0" role="button" aria-label="사그라다 파밀리아">
      <path class="pin-shape" d="M0,-18 C-9,-18 -16,-11 -16,-2 C-16,9 0,22 0,22 C0,22 16,9 16,-2 C16,-11 9,-18 0,-18 Z"/>
      <circle class="pin-core" cx="0" cy="-3" r="5"/>
      <title>사그라다 파밀리아 / 스페인</title>
    </g><g class="pin" id="landmark-10" data-landmark-id="santorini_30" data-name="산토리니" data-country="그리스" transform="translate(897.91 333.97)" tabindex="0" role="button" aria-label="산토리니">
      <path class="pin-shape" d="M0,-18 C-9,-18 -16,-11 -16,-2 C-16,9 0,22 0,22 C0,22 16,9 16,-2 C16,-11 9,-18 0,-18 Z"/>
      <circle class="pin-core" cx="0" cy="-3" r="5"/>
      <title>산토리니 / 그리스</title>
    </g><g class="pin" id="landmark-11" data-landmark-id="statue_30" data-name="자유의 여신상" data-country="미국" transform="translate(521.02 314.11)" tabindex="0" role="button" aria-label="자유의 여신상">
      <path class="pin-shape" d="M0,-18 C-9,-18 -16,-11 -16,-2 C-16,9 0,22 0,22 C0,22 16,9 16,-2 C16,-11 9,-18 0,-18 Z"/>
      <circle class="pin-core" cx="0" cy="-3" r="5"/>
      <title>자유의 여신상 / 미국</title>
    </g><g class="pin" id="landmark-12" data-landmark-id="grandcanyon_30" data-name="그랜드캐니언" data-country="미국" transform="translate(368.37 335.3)" tabindex="0" role="button" aria-label="그랜드캐니언">
      <path class="pin-shape" d="M0,-18 C-9,-18 -16,-11 -16,-2 C-16,9 0,22 0,22 C0,22 16,9 16,-2 C16,-11 9,-18 0,-18 Z"/>
      <circle class="pin-core" cx="0" cy="-3" r="5"/>
      <title>그랜드캐니언 / 미국</title>
    </g><g class="pin" id="landmark-13" data-landmark-id="chichen_30" data-name="치첸이트사" data-country="멕시코" transform="translate(443.51 406.92)" tabindex="0" role="button" aria-label="치첸이트사">
      <path class="pin-shape" d="M0,-18 C-9,-18 -16,-11 -16,-2 C-16,9 0,22 0,22 C0,22 16,9 16,-2 C16,-11 9,-18 0,-18 Z"/>
      <circle class="pin-core" cx="0" cy="-3" r="5"/>
      <title>치첸이트사 / 멕시코</title>
    </g><g class="pin" id="landmark-14" data-landmark-id="cntower_30" data-name="CN타워" data-country="캐나다" transform="translate(505.75 300.53)" tabindex="0" role="button" aria-label="CN타워">
      <path class="pin-shape" d="M0,-18 C-9,-18 -16,-11 -16,-2 C-16,9 0,22 0,22 C0,22 16,9 16,-2 C16,-11 9,-18 0,-18 Z"/>
      <circle class="pin-core" cx="0" cy="-3" r="5"/>
      <title>CN타워 / 캐나다</title>
    </g><g class="pin" id="landmark-15" data-landmark-id="niagara_30" data-name="나이아가라 폭포" data-country="캐나다·미국" transform="translate(505.94 303.07)" tabindex="0" role="button" aria-label="나이아가라 폭포">
      <path class="pin-shape" d="M0,-18 C-9,-18 -16,-11 -16,-2 C-16,9 0,22 0,22 C0,22 16,9 16,-2 C16,-11 9,-18 0,-18 Z"/>
      <circle class="pin-core" cx="0" cy="-3" r="5"/>
      <title>나이아가라 폭포 / 캐나다·미국</title>
    </g><g class="pin" id="landmark-16" data-landmark-id="christ_30" data-name="예수상" data-country="브라질" transform="translate(626.78 609.59)" tabindex="0" role="button" aria-label="예수상">
      <path class="pin-shape" d="M0,-18 C-9,-18 -16,-11 -16,-2 C-16,9 0,22 0,22 C0,22 16,9 16,-2 C16,-11 9,-18 0,-18 Z"/>
      <circle class="pin-core" cx="0" cy="-3" r="5"/>
      <title>예수상 / 브라질</title>
    </g><g class="pin" id="landmark-17" data-landmark-id="machu_30" data-name="마추픽추" data-country="페루" transform="translate(504.66 564.13)" tabindex="0" role="button" aria-label="마추픽추">
      <path class="pin-shape" d="M0,-18 C-9,-18 -16,-11 -16,-2 C-16,9 0,22 0,22 C0,22 16,9 16,-2 C16,-11 9,-18 0,-18 Z"/>
      <circle class="pin-core" cx="0" cy="-3" r="5"/>
      <title>마추픽추 / 페루</title>
    </g><g class="pin" id="landmark-18" data-landmark-id="iguazu_30" data-name="이과수 폭포" data-country="브라질·아르헨티나" transform="translate(583.03 622.33)" tabindex="0" role="button" aria-label="이과수 폭포">
      <path class="pin-shape" d="M0,-18 C-9,-18 -16,-11 -16,-2 C-16,9 0,22 0,22 C0,22 16,9 16,-2 C16,-11 9,-18 0,-18 Z"/>
      <circle class="pin-core" cx="0" cy="-3" r="5"/>
      <title>이과수 폭포 / 브라질·아르헨티나</title>
    </g><g class="pin" id="landmark-19" data-landmark-id="galapagos_30" data-name="갈라파고스 제도" data-country="에콰도르" transform="translate(426.81 507.42)" tabindex="0" role="button" aria-label="갈라파고스 제도">
      <path class="pin-shape" d="M0,-18 C-9,-18 -16,-11 -16,-2 C-16,9 0,22 0,22 C0,22 16,9 16,-2 C16,-11 9,-18 0,-18 Z"/>
      <circle class="pin-core" cx="0" cy="-3" r="5"/>
      <title>갈라파고스 제도 / 에콰도르</title>
    </g><g class="pin" id="landmark-20" data-landmark-id="moai_30" data-name="모아이 석상" data-country="칠레령 이스터섬" transform="translate(365.64 628.95)" tabindex="0" role="button" aria-label="모아이 석상">
      <path class="pin-shape" d="M0,-18 C-9,-18 -16,-11 -16,-2 C-16,9 0,22 0,22 C0,22 16,9 16,-2 C16,-11 9,-18 0,-18 Z"/>
      <circle class="pin-core" cx="0" cy="-3" r="5"/>
      <title>모아이 석상 / 칠레령 이스터섬</title>
    </g><g class="pin" id="landmark-21" data-landmark-id="pyramid_30" data-name="기자 피라미드" data-country="이집트" transform="translate(922.64 363.75)" tabindex="0" role="button" aria-label="기자 피라미드">
      <path class="pin-shape" d="M0,-18 C-9,-18 -16,-11 -16,-2 C-16,9 0,22 0,22 C0,22 16,9 16,-2 C16,-11 9,-18 0,-18 Z"/>
      <circle class="pin-core" cx="0" cy="-3" r="5"/>
      <title>기자 피라미드 / 이집트</title>
    </g><g class="pin" id="landmark-22" data-landmark-id="sphinx_30" data-name="스핑크스" data-country="이집트" transform="translate(922.65 363.77)" tabindex="0" role="button" aria-label="스핑크스">
      <path class="pin-shape" d="M0,-18 C-9,-18 -16,-11 -16,-2 C-16,9 0,22 0,22 C0,22 16,9 16,-2 C16,-11 9,-18 0,-18 Z"/>
      <circle class="pin-core" cx="0" cy="-3" r="5"/>
      <title>스핑크스 / 이집트</title>
    </g><g class="pin" id="landmark-23" data-landmark-id="kilimanjaro_30" data-name="킬리만자로" data-country="탄자니아" transform="translate(953.17 517.24)" tabindex="0" role="button" aria-label="킬리만자로">
      <path class="pin-shape" d="M0,-18 C-9,-18 -16,-11 -16,-2 C-16,9 0,22 0,22 C0,22 16,9 16,-2 C16,-11 9,-18 0,-18 Z"/>
      <circle class="pin-core" cx="0" cy="-3" r="5"/>
      <title>킬리만자로 / 탄자니아</title>
    </g><g class="pin" id="landmark-24" data-landmark-id="victoria_30" data-name="빅토리아 폭포" data-country="잠비아·짐바브웨" transform="translate(904.56 586.24)" tabindex="0" role="button" aria-label="빅토리아 폭포">
      <path class="pin-shape" d="M0,-18 C-9,-18 -16,-11 -16,-2 C-16,9 0,22 0,22 C0,22 16,9 16,-2 C16,-11 9,-18 0,-18 Z"/>
      <circle class="pin-core" cx="0" cy="-3" r="5"/>
      <title>빅토리아 폭포 / 잠비아·짐바브웨</title>
    </g><g class="pin" id="landmark-25" data-landmark-id="hassan_30" data-name="하산 2세 모스크" data-country="모로코" transform="translate(770.32 346.89)" tabindex="0" role="button" aria-label="하산 2세 모스크">
      <path class="pin-shape" d="M0,-18 C-9,-18 -16,-11 -16,-2 C-16,9 0,22 0,22 C0,22 16,9 16,-2 C16,-11 9,-18 0,-18 Z"/>
      <circle class="pin-core" cx="0" cy="-3" r="5"/>
      <title>하산 2세 모스크 / 모로코</title>
    </g><g class="pin" id="landmark-26" data-landmark-id="opera_30" data-name="시드니 오페라하우스" data-country="호주" transform="translate(1387.51 660.24)" tabindex="0" role="button" aria-label="시드니 오페라하우스">
      <path class="pin-shape" d="M0,-18 C-9,-18 -16,-11 -16,-2 C-16,9 0,22 0,22 C0,22 16,9 16,-2 C16,-11 9,-18 0,-18 Z"/>
      <circle class="pin-core" cx="0" cy="-3" r="5"/>
      <title>시드니 오페라하우스 / 호주</title>
    </g><g class="pin" id="landmark-27" data-landmark-id="uluru_30" data-name="울루루" data-country="호주" transform="translate(1322.7 620.7)" tabindex="0" role="button" aria-label="울루루">
      <path class="pin-shape" d="M0,-18 C-9,-18 -16,-11 -16,-2 C-16,9 0,22 0,22 C0,22 16,9 16,-2 C16,-11 9,-18 0,-18 Z"/>
      <circle class="pin-core" cx="0" cy="-3" r="5"/>
      <title>울루루 / 호주</title>
    </g><g class="pin" id="landmark-28" data-landmark-id="milford_30" data-name="밀포드사운드" data-country="뉴질랜드" transform="translate(1418.66 710.16)" tabindex="0" role="button" aria-label="밀포드사운드">
      <path class="pin-shape" d="M0,-18 C-9,-18 -16,-11 -16,-2 C-16,9 0,22 0,22 C0,22 16,9 16,-2 C16,-11 9,-18 0,-18 Z"/>
      <circle class="pin-core" cx="0" cy="-3" r="5"/>
      <title>밀포드사운드 / 뉴질랜드</title>
    </g><g class="pin" id="landmark-29" data-landmark-id="samoa_30" data-name="아피아 해안" data-country="사모아" transform="translate(101.27 567.24)" tabindex="0" role="button" aria-label="아피아 해안">
      <path class="pin-shape" d="M0,-18 C-9,-18 -16,-11 -16,-2 C-16,9 0,22 0,22 C0,22 16,9 16,-2 C16,-11 9,-18 0,-18 Z"/>
      <circle class="pin-core" cx="0" cy="-3" r="5"/>
      <title>아피아 해안 / 사모아</title>
    </g><g class="pin" id="landmark-30" data-landmark-id="borabora_30" data-name="보라보라섬" data-country="프랑스령 폴리네시아" transform="translate(185.01 579.63)" tabindex="0" role="button" aria-label="보라보라섬">
      <path class="pin-shape" d="M0,-18 C-9,-18 -16,-11 -16,-2 C-16,9 0,22 0,22 C0,22 16,9 16,-2 C16,-11 9,-18 0,-18 Z"/>
      <circle class="pin-core" cx="0" cy="-3" r="5"/>
      <title>보라보라섬 / 프랑스령 폴리네시아</title>
    </g>
  </g>
</svg>
